<svg xmlns="http://www.w3.org/2000/svg" version="1.1" xmlns:xlink="http://www.w3.org/1999/xlink" xmlns:svgjs="http://svgjs.dev/svgjs" width="400" height="400"><svg id="SvgjsSvg1033" data-name="Layer 1" xmlns="http://www.w3.org/2000/svg" xmlns:xlink="http://www.w3.org/1999/xlink" viewBox="100 0 400 400">
  <defs>
    <style>
      .cls-1 {
        fill: none;
      }

      .cls-1, .cls-2, .cls-3, .cls-4, .cls-5 {
        stroke-width: 0px;
      }

      .cls-2 {
        fill: #686868;
      }

      .cls-3 {
        fill: url(#radial-gradient);
      }

      .cls-3, .cls-4 {
        fill-rule: evenodd;
      }

      .cls-4 {
        fill: url(#linear-gradient);
      }

      .cls-5 {
        fill: url(#radial-gradient-2);
      }

      .cls-6 {
        clip-path: url(#clippath);
      }
    </style>
    <clipPath id="SvgjsClipPath1032">
      <path class="cls-1" d="m311.58,508.13c-126.55,0-229.14-102.42-229.14-228.76S185.03,50.61,311.58,50.61c46.52,0,89.89,13.41,126.03,37.19,62.18,40.91,103.11,111.67,103.11,191.57s-39.3,146.94-99.04,189.13c-13.19,9.32-28.15,16.69-43.29,22.94-15.07,6.22-30.32,11.32-46.29,14.55-14.78,2.99-24.85,2.13-40.51,2.13Z"></path>
    </clipPath>
    <radialGradient id="SvgjsRadialGradient1031" cx="257.77" cy="201.82" fx="257.77" fy="201.82" r="185.43" gradientUnits="userSpaceOnUse">
      <stop offset="0" stop-color="#a6c8d1"></stop>
      <stop offset="1" stop-color="#25464d"></stop>
    </radialGradient>
    <linearGradient id="SvgjsLinearGradient1030" x1="360.34" y1="282.36" x2="502.9" y2="311.35" gradientUnits="userSpaceOnUse">
      <stop offset="0" stop-color="#ccc"></stop>
      <stop offset="1" stop-color="#5e5e60"></stop>
    </linearGradient>
    <radialGradient id="SvgjsRadialGradient1029" cx="261.31" cy="543.19" fx="261.31" fy="543.19" r="142.38" gradientTransform="translate(21.42 509.14) scale(1.08 .06)" gradientUnits="userSpaceOnUse">
      <stop offset=".08" stop-color="#c6c6c6"></stop>
      <stop offset=".18" stop-color="#c6c6c6" stop-opacity=".95"></stop>
      <stop offset=".34" stop-color="#c6c6c6" stop-opacity=".81"></stop>
      <stop offset=".55" stop-color="#c6c6c6" stop-opacity=".59"></stop>
      <stop offset=".8" stop-color="#c6c6c6" stop-opacity=".28"></stop>
      <stop offset="1" stop-color="#c6c6c6" stop-opacity="0"></stop>
    </radialGradient>
  </defs>
  <g>
    <path class="cls-2" d="m49.42,638.75v7.21h3.34c.77,0,1.33-.17,1.68-.51.36-.34.59-1.01.71-2.01h.5v6.21h-.5c0-.71-.1-1.24-.28-1.57-.18-.34-.42-.58-.73-.75-.31-.17-.77-.25-1.39-.25h-3.34v5.76c0,.93.06,1.54.18,1.84.09.23.28.42.57.58.4.22.81.33,1.24.33h.66v.5h-7.87v-.5h.65c.76,0,1.31-.22,1.65-.66.22-.29.32-.98.32-2.08v-11.84c0-.93-.06-1.54-.18-1.84-.09-.22-.28-.42-.55-.58-.39-.22-.8-.32-1.24-.32h-.65v-.5h13.64l.18,4.03h-.47c-.24-.86-.51-1.48-.82-1.89-.31-.4-.69-.69-1.15-.87-.45-.18-1.16-.27-2.12-.27h-4.04Z"></path>
    <path class="cls-2" d="m68.44,643.33v9.95c0,.77.06,1.29.17,1.55.11.26.28.45.5.57s.62.19,1.21.19v.49h-6.02v-.49c.6,0,1.01-.06,1.22-.18.21-.12.37-.31.49-.58.12-.27.18-.79.18-1.55v-4.77c0-1.34-.04-2.21-.12-2.61-.06-.29-.16-.49-.3-.6-.14-.11-.32-.17-.55-.17-.25,0-.56.07-.92.2l-.19-.49,3.73-1.51h.59Zm-1.12-6.48c.38,0,.7.13.97.4.27.27.4.59.4.97s-.13.7-.4.97c-.27.27-.59.41-.97.41s-.7-.14-.97-.41-.41-.59-.41-.97.13-.7.4-.97.59-.4.98-.4Z"></path>
    <path class="cls-2" d="m79.41,645.83c1.2-1.67,2.49-2.5,3.88-2.5,1.27,0,2.38.54,3.32,1.63.95,1.09,1.42,2.57,1.42,4.46,0,2.2-.73,3.97-2.19,5.31-1.25,1.15-2.65,1.73-4.19,1.73-.72,0-1.45-.13-2.2-.39-.74-.26-1.5-.65-2.28-1.18v-12.83c0-1.41-.03-2.27-.1-2.6s-.17-.55-.32-.66c-.14-.12-.32-.18-.54-.18-.25,0-.57.07-.95.22l-.19-.47,3.72-1.52h.61v8.98Zm0,.87v7.41c.46.45.94.79,1.43,1.02.49.23.99.35,1.51.35.82,0,1.58-.45,2.29-1.35.71-.9,1.06-2.21,1.06-3.93,0-1.59-.35-2.8-1.06-3.66s-1.51-1.28-2.41-1.28c-.48,0-.96.12-1.43.37-.36.18-.82.54-1.38,1.08Z"></path>
    <path class="cls-2" d="m96.1,648.36c0,1.84.44,3.28,1.34,4.33.9,1.05,1.96,1.57,3.18,1.57.81,0,1.52-.22,2.12-.67.6-.45,1.1-1.21,1.51-2.29l.42.27c-.19,1.23-.74,2.36-1.65,3.37-.91,1.01-2.05,1.52-3.42,1.52-1.49,0-2.76-.58-3.82-1.74s-1.59-2.72-1.59-4.67c0-2.12.54-3.77,1.63-4.95s2.45-1.78,4.09-1.78c1.39,0,2.53.46,3.42,1.37.89.92,1.34,2.14,1.34,3.67h-8.56Zm0-.79h5.73c-.05-.79-.14-1.35-.28-1.68-.23-.51-.56-.9-1.01-1.19s-.91-.43-1.4-.43c-.75,0-1.42.29-2.01.87s-.94,1.39-1.03,2.43Z"></path>
    <path class="cls-2" d="m114.08,643.33v2.78c1.04-1.86,2.1-2.78,3.19-2.78.5,0,.91.15,1.23.45.33.3.49.65.49,1.05,0,.35-.12.65-.35.89-.23.24-.51.37-.84.37s-.67-.16-1.06-.47c-.39-.31-.68-.47-.87-.47-.16,0-.34.09-.53.27-.4.37-.82.98-1.26,1.83v5.94c0,.69.09,1.2.26,1.56.12.24.32.45.62.61s.73.24,1.28.24v.49h-6.34v-.49c.63,0,1.1-.1,1.41-.3.23-.14.38-.37.47-.69.05-.15.07-.59.07-1.31v-4.8c0-1.44-.03-2.3-.09-2.58s-.17-.47-.32-.6c-.16-.13-.35-.19-.59-.19-.28,0-.59.07-.95.2l-.14-.49,3.75-1.51h.57Z"></path>
    <path class="cls-2" d="m122.6,637.75h4.98l11.21,13.75v-10.57c0-1.13-.13-1.83-.38-2.11-.33-.38-.86-.57-1.58-.57h-.64v-.5h6.38v.5h-.65c-.78,0-1.32.23-1.65.7-.2.29-.3.95-.3,1.97v15.45h-.49l-12.09-14.76v11.29c0,1.13.12,1.83.36,2.11.34.38.87.57,1.58.57h.65v.5h-6.38v-.5h.64c.78,0,1.34-.24,1.66-.7.2-.29.3-.95.3-1.97v-12.75c-.53-.62-.94-1.03-1.21-1.23-.28-.2-.68-.38-1.21-.55-.26-.08-.66-.12-1.19-.12v-.5Z"></path>
    <path class="cls-2" d="m150.06,648.36c0,1.84.44,3.28,1.34,4.33.9,1.05,1.96,1.57,3.18,1.57.81,0,1.52-.22,2.12-.67.6-.45,1.1-1.21,1.51-2.29l.42.27c-.19,1.23-.74,2.36-1.65,3.37-.91,1.01-2.05,1.52-3.42,1.52-1.49,0-2.76-.58-3.82-1.74s-1.59-2.72-1.59-4.67c0-2.12.54-3.77,1.63-4.95s2.45-1.78,4.09-1.78c1.39,0,2.53.46,3.42,1.37.89.92,1.34,2.14,1.34,3.67h-8.56Zm0-.79h5.73c-.05-.79-.14-1.35-.28-1.68-.23-.51-.56-.9-1.01-1.19s-.91-.43-1.4-.43c-.75,0-1.42.29-2.01.87s-.94,1.39-1.03,2.43Z"></path>
    <path class="cls-2" d="m168.02,639.63v4.07h2.89v.95h-2.89v8.03c0,.8.11,1.34.34,1.62.23.28.53.42.89.42.3,0,.59-.09.87-.28.28-.19.49-.46.65-.82h.53c-.32.88-.76,1.55-1.34,1.99s-1.17.67-1.78.67c-.41,0-.82-.11-1.22-.34-.4-.23-.69-.56-.88-.99-.19-.43-.28-1.09-.28-1.98v-8.33h-1.96v-.45c.49-.2,1-.53,1.52-1.01.52-.47.98-1.03,1.39-1.68.21-.34.5-.97.87-1.88h.42Z"></path>
    <path class="cls-2" d="m193.88,656.08v-.5h.69c.78,0,1.32-.25,1.65-.75.2-.3.3-.96.3-2v-11.84c0-1.14-.13-1.86-.38-2.15-.35-.4-.87-.59-1.57-.59h-.69v-.5h7.46c2.74,0,4.82.31,6.25.93,1.43.62,2.58,1.66,3.45,3.11s1.3,3.13,1.3,5.03c0,2.55-.78,4.68-2.33,6.39-1.74,1.91-4.39,2.87-7.95,2.87h-8.19Zm5.23-1.32c1.14.25,2.1.38,2.88.38,2.09,0,3.83-.73,5.21-2.2s2.07-3.46,2.07-5.98-.69-4.53-2.07-5.99c-1.38-1.46-3.15-2.19-5.31-2.19-.81,0-1.74.13-2.77.39v15.59Z"></path>
    <path class="cls-2" d="m217.71,643.7h5.77v.5h-.28c-.4,0-.71.09-.91.26-.2.18-.31.39-.31.65,0,.35.15.84.45,1.46l3.02,6.25,2.77-6.84c.15-.37.23-.73.23-1.09,0-.16-.03-.28-.1-.37-.07-.1-.18-.18-.34-.24-.15-.06-.42-.09-.81-.09v-.5h4.03v.5c-.33.04-.59.11-.77.22-.18.11-.38.31-.59.61-.08.12-.23.47-.46,1.04l-5.04,12.36c-.49,1.2-1.12,2.11-1.91,2.72s-1.55.92-2.28.92c-.53,0-.97-.15-1.31-.46s-.51-.66-.51-1.05.12-.68.37-.91c.25-.23.59-.35,1.02-.35.3,0,.7.1,1.22.3.36.14.59.2.68.2.27,0,.57-.14.89-.42.32-.28.64-.82.97-1.62l.88-2.15-4.45-9.34c-.14-.28-.35-.63-.65-1.04-.23-.32-.41-.53-.55-.64-.21-.14-.54-.27-1-.38v-.5Z"></path>
    <path class="cls-2" d="m240.03,645.96c1.45-1.75,2.83-2.62,4.15-2.62.68,0,1.26.17,1.74.51.49.34.87.9,1.16,1.67.2.54.3,1.37.3,2.49v5.29c0,.78.06,1.32.19,1.6.1.22.26.4.48.53s.63.19,1.22.19v.49h-6.12v-.49h.26c.58,0,.98-.09,1.21-.26s.39-.43.48-.78c.04-.13.05-.56.05-1.27v-5.07c0-1.13-.15-1.95-.44-2.45-.29-.51-.79-.77-1.48-.77-1.07,0-2.14.59-3.2,1.76v6.53c0,.84.05,1.36.15,1.55.13.26.3.45.52.57.22.12.67.18,1.35.18v.49h-6.12v-.49h.27c.63,0,1.06-.16,1.28-.48.22-.32.33-.93.33-1.83v-4.6c0-1.49-.03-2.39-.1-2.72s-.17-.55-.31-.66c-.14-.12-.33-.18-.56-.18-.25,0-.55.07-.91.2l-.2-.49,3.73-1.51h.58v2.62Z"></path>
    <path class="cls-2" d="m261.43,654.3c-1.27.98-2.07,1.55-2.39,1.7-.49.23-1.01.34-1.56.34-.86,0-1.56-.29-2.12-.88s-.83-1.36-.83-2.31c0-.6.14-1.13.4-1.57.37-.61,1.01-1.19,1.93-1.73.91-.54,2.44-1.2,4.56-1.97v-.49c0-1.24-.2-2.08-.59-2.54-.39-.46-.96-.69-1.71-.69-.57,0-1.02.15-1.35.46-.34.31-.51.66-.51,1.05l.03.78c0,.41-.11.74-.32.96-.21.23-.49.34-.83.34s-.61-.12-.82-.35c-.21-.24-.32-.55-.32-.96,0-.77.4-1.49,1.19-2.13.79-.65,1.91-.97,3.34-.97,1.1,0,2,.18,2.7.55.53.28.92.72,1.18,1.31.16.39.24,1.18.24,2.38v4.2c0,1.18.02,1.91.07,2.17.04.27.12.44.22.53.1.09.22.14.36.14.14,0,.27-.03.38-.1.19-.12.55-.45,1.09-.99v.76c-1.01,1.35-1.97,2.03-2.89,2.03-.44,0-.79-.15-1.05-.46-.26-.31-.4-.83-.41-1.57Zm0-.88v-4.72c-1.36.54-2.24.92-2.64,1.15-.71.4-1.22.81-1.53,1.24-.31.43-.46.91-.46,1.42,0,.65.19,1.19.58,1.62.39.43.83.64,1.34.64.68,0,1.59-.45,2.7-1.35Z"></path>
    <path class="cls-2" d="m274.54,645.97c.9-.9,1.43-1.42,1.6-1.56.4-.34.84-.61,1.31-.8.47-.19.93-.28,1.39-.28.78,0,1.44.22,2,.68.56.45.93,1.1,1.12,1.96.93-1.08,1.71-1.79,2.35-2.13.64-.34,1.3-.51,1.97-.51s1.24.17,1.75.51c.51.34.91.89,1.21,1.66.2.52.3,1.34.3,2.46v5.33c0,.77.06,1.31.18,1.6.09.2.26.37.5.51.24.14.64.21,1.19.21v.49h-6.11v-.49h.26c.53,0,.95-.1,1.24-.31.21-.14.36-.37.45-.69.04-.15.05-.59.05-1.31v-5.33c0-1.01-.12-1.72-.36-2.14-.35-.58-.92-.87-1.69-.87-.48,0-.96.12-1.44.36-.48.24-1.07.68-1.75,1.33l-.03.15.03.58v5.91c0,.85.05,1.37.14,1.58.09.21.27.38.53.52s.71.21,1.34.21v.49h-6.26v-.49c.68,0,1.16-.08,1.41-.24.26-.16.43-.41.53-.73.04-.15.07-.6.07-1.34v-5.33c0-1.01-.15-1.74-.45-2.18-.4-.58-.95-.87-1.66-.87-.49,0-.97.13-1.45.39-.75.39-1.33.84-1.73,1.34v6.64c0,.81.06,1.34.17,1.58.11.24.28.43.5.55.22.12.67.18,1.35.18v.49h-6.12v-.49c.57,0,.96-.06,1.19-.18.23-.12.4-.32.51-.58.12-.26.18-.78.18-1.55v-4.73c0-1.36-.04-2.24-.12-2.64-.06-.3-.16-.5-.3-.62-.14-.11-.32-.17-.55-.17-.25,0-.55.07-.91.2l-.2-.49,3.73-1.51h.58v2.64Z"></path>
    <path class="cls-2" d="m300.82,643.33v9.95c0,.77.06,1.29.17,1.55.11.26.28.45.5.57s.62.19,1.21.19v.49h-6.02v-.49c.6,0,1.01-.06,1.22-.18.21-.12.37-.31.49-.58.12-.27.18-.79.18-1.55v-4.77c0-1.34-.04-2.21-.12-2.61-.06-.29-.16-.49-.3-.6-.14-.11-.32-.17-.55-.17-.25,0-.56.07-.92.2l-.19-.49,3.73-1.51h.59Zm-1.12-6.48c.38,0,.7.13.97.4.27.27.4.59.4.97s-.13.7-.4.97c-.27.27-.59.41-.97.41s-.7-.14-.97-.41-.41-.59-.41-.97.13-.7.4-.97.59-.4.98-.4Z"></path>
    <path class="cls-2" d="m318.91,651.38c-.33,1.63-.99,2.89-1.96,3.77-.97.88-2.05,1.32-3.23,1.32-1.41,0-2.63-.59-3.68-1.77-1.05-1.18-1.57-2.78-1.57-4.79s.58-3.53,1.74-4.75c1.16-1.22,2.55-1.82,4.17-1.82,1.22,0,2.22.32,3,.97.78.64,1.18,1.31,1.18,2.01,0,.34-.11.62-.33.83-.22.21-.53.32-.93.32-.53,0-.93-.17-1.2-.51-.15-.19-.25-.55-.3-1.08-.05-.53-.23-.94-.55-1.22-.32-.27-.75-.41-1.31-.41-.9,0-1.63.33-2.18,1-.73.88-1.09,2.05-1.09,3.5s.36,2.78,1.09,3.91c.73,1.13,1.71,1.7,2.94,1.7.88,0,1.68-.3,2.38-.91.5-.41.98-1.17,1.45-2.26l.39.19Z"></path>
    <path class="cls-2" d="m332.84,643.33v4.22h-.45c-.34-1.32-.78-2.23-1.32-2.7-.54-.48-1.22-.72-2.05-.72-.63,0-1.14.17-1.53.5-.39.33-.58.7-.58,1.11,0,.5.14.94.43,1.3.28.37.85.76,1.7,1.18l1.97.96c1.83.89,2.74,2.07,2.74,3.53,0,1.12-.42,2.03-1.28,2.72-.85.69-1.8,1.04-2.86,1.04-.76,0-1.62-.14-2.6-.41-.3-.09-.54-.14-.73-.14-.21,0-.37.12-.49.35h-.45v-4.42h.45c.25,1.26.73,2.21,1.45,2.85.71.64,1.51.96,2.39.96.62,0,1.13-.18,1.52-.55.39-.36.59-.8.59-1.32,0-.62-.22-1.14-.66-1.57s-1.31-.96-2.62-1.61c-1.31-.65-2.16-1.23-2.57-1.76-.41-.51-.61-1.16-.61-1.95,0-1.02.35-1.87,1.05-2.56s1.6-1.03,2.71-1.03c.49,0,1.08.1,1.77.31.46.14.77.2.92.2.14,0,.26-.03.34-.09.08-.06.18-.2.28-.42h.45Z"></path>
    <path class="cls-2" d="m366.65,637.33l.42,6.23h-.42c-.56-1.86-1.36-3.21-2.39-4.03-1.04-.82-2.28-1.23-3.73-1.23-1.22,0-2.32.31-3.3.93-.98.62-1.76,1.6-2.32,2.95s-.85,3.03-.85,5.04c0,1.66.27,3.1.8,4.31.53,1.22,1.33,2.15,2.4,2.8,1.07.65,2.29.97,3.66.97,1.19,0,2.24-.26,3.15-.77.91-.51,1.91-1.52,3-3.04l.42.27c-.92,1.63-1.99,2.83-3.22,3.58-1.23.76-2.68,1.14-4.37,1.14-3.04,0-5.39-1.13-7.06-3.38-1.24-1.68-1.87-3.65-1.87-5.92,0-1.83.41-3.51,1.23-5.04.82-1.53,1.95-2.72,3.39-3.56,1.44-.84,3.01-1.26,4.71-1.26,1.32,0,2.63.33,3.92.97.38.2.65.3.81.3.24,0,.45-.08.64-.26.23-.24.4-.58.5-1.01h.47Z"></path>
    <path class="cls-2" d="m379.52,643.33c1.87,0,3.38.71,4.52,2.14.96,1.22,1.45,2.61,1.45,4.19,0,1.11-.27,2.23-.8,3.37s-1.26,1.99-2.2,2.57-1.97.87-3.12.87c-1.87,0-3.35-.75-4.45-2.23-.93-1.25-1.39-2.66-1.39-4.22,0-1.14.28-2.27.85-3.39.56-1.12,1.3-1.95,2.22-2.49.92-.53,1.89-.8,2.92-.8Zm-.42.88c-.48,0-.96.14-1.44.43s-.87.78-1.17,1.49-.45,1.63-.45,2.74c0,1.8.36,3.36,1.08,4.66.72,1.31,1.66,1.96,2.83,1.96.87,0,1.6-.36,2.16-1.08.57-.72.85-1.96.85-3.72,0-2.2-.47-3.93-1.42-5.19-.64-.87-1.46-1.3-2.45-1.3Z"></path>
    <path class="cls-2" d="m395.14,645.97c.9-.9,1.43-1.42,1.6-1.56.4-.34.84-.61,1.31-.8.47-.19.93-.28,1.39-.28.78,0,1.44.22,2,.68.56.45.93,1.1,1.12,1.96.93-1.08,1.71-1.79,2.35-2.13.64-.34,1.3-.51,1.97-.51s1.24.17,1.75.51c.51.34.91.89,1.21,1.66.2.52.3,1.34.3,2.46v5.33c0,.77.06,1.31.18,1.6.09.2.26.37.5.51.24.14.64.21,1.19.21v.49h-6.11v-.49h.26c.53,0,.95-.1,1.24-.31.21-.14.36-.37.45-.69.04-.15.05-.59.05-1.31v-5.33c0-1.01-.12-1.72-.36-2.14-.35-.58-.92-.87-1.69-.87-.48,0-.96.12-1.44.36-.48.24-1.07.68-1.75,1.33l-.03.15.03.58v5.91c0,.85.05,1.37.14,1.58.09.21.27.38.53.52s.71.21,1.34.21v.49h-6.26v-.49c.68,0,1.16-.08,1.41-.24.26-.16.43-.41.53-.73.04-.15.07-.6.07-1.34v-5.33c0-1.01-.15-1.74-.45-2.18-.4-.58-.95-.87-1.66-.87-.49,0-.97.13-1.45.39-.75.39-1.33.84-1.73,1.34v6.64c0,.81.06,1.34.17,1.58.11.24.28.43.5.55.22.12.67.18,1.35.18v.49h-6.12v-.49c.57,0,.96-.06,1.19-.18.23-.12.4-.32.51-.58.12-.26.18-.78.18-1.55v-4.73c0-1.36-.04-2.24-.12-2.64-.06-.3-.16-.5-.3-.62-.14-.11-.32-.17-.55-.17-.25,0-.55.07-.91.2l-.2-.49,3.73-1.51h.58v2.64Z"></path>
    <path class="cls-2" d="m420.83,645.97c.9-.9,1.43-1.42,1.6-1.56.4-.34.84-.61,1.31-.8.47-.19.93-.28,1.39-.28.78,0,1.44.22,2,.68.56.45.93,1.1,1.12,1.96.93-1.08,1.71-1.79,2.35-2.13.64-.34,1.3-.51,1.97-.51s1.24.17,1.75.51c.51.34.91.89,1.21,1.66.2.52.3,1.34.3,2.46v5.33c0,.77.06,1.31.18,1.6.09.2.26.37.5.51.24.14.64.21,1.19.21v.49h-6.11v-.49h.26c.53,0,.95-.1,1.24-.31.21-.14.36-.37.45-.69.04-.15.05-.59.05-1.31v-5.33c0-1.01-.12-1.72-.36-2.14-.35-.58-.92-.87-1.69-.87-.48,0-.96.12-1.44.36-.48.24-1.07.68-1.75,1.33l-.03.15.03.58v5.91c0,.85.05,1.37.14,1.58.09.21.27.38.53.52s.71.21,1.34.21v.49h-6.26v-.49c.68,0,1.16-.08,1.41-.24.26-.16.43-.41.53-.73.04-.15.07-.6.07-1.34v-5.33c0-1.01-.15-1.74-.45-2.18-.4-.58-.95-.87-1.66-.87-.49,0-.97.13-1.45.39-.75.39-1.33.84-1.73,1.34v6.64c0,.81.06,1.34.17,1.58.11.24.28.43.5.55.22.12.67.18,1.35.18v.49h-6.12v-.49c.57,0,.96-.06,1.19-.18.23-.12.4-.32.51-.58.12-.26.18-.78.18-1.55v-4.73c0-1.36-.04-2.24-.12-2.64-.06-.3-.16-.5-.3-.62-.14-.11-.32-.17-.55-.17-.25,0-.55.07-.91.2l-.2-.49,3.73-1.51h.58v2.64Z"></path>
    <path class="cls-2" d="m453.7,643.7v7.5c0,1.43.03,2.31.1,2.63.07.32.18.54.33.67s.32.19.52.19c.28,0,.59-.08.95-.23l.19.47-3.7,1.53h-.61v-2.62c-1.06,1.16-1.87,1.88-2.43,2.18-.56.3-1.15.45-1.77.45-.69,0-1.3-.2-1.8-.6-.51-.4-.86-.92-1.06-1.55-.2-.63-.3-1.52-.3-2.68v-5.53c0-.59-.06-.99-.19-1.22-.13-.23-.31-.4-.56-.52-.25-.12-.7-.18-1.35-.17v-.5h4.34v8.29c0,1.15.2,1.91.6,2.27.4.36.89.54,1.45.54.39,0,.83-.12,1.32-.36.49-.24,1.08-.71,1.75-1.39v-7.02c0-.7-.13-1.18-.38-1.42-.26-.25-.79-.38-1.6-.4v-.5h4.22Z"></path>
    <path class="cls-2" d="m464.45,645.96c1.45-1.75,2.83-2.62,4.15-2.62.68,0,1.26.17,1.74.51.49.34.87.9,1.16,1.67.2.54.3,1.37.3,2.49v5.29c0,.78.06,1.32.19,1.6.1.22.26.4.48.53s.63.19,1.22.19v.49h-6.12v-.49h.26c.58,0,.98-.09,1.21-.26s.39-.43.48-.78c.04-.13.05-.56.05-1.27v-5.07c0-1.13-.15-1.95-.44-2.45-.29-.51-.79-.77-1.48-.77-1.07,0-2.14.59-3.2,1.76v6.53c0,.84.05,1.36.15,1.55.13.26.3.45.52.57.22.12.67.18,1.35.18v.49h-6.12v-.49h.27c.63,0,1.06-.16,1.28-.48.22-.32.33-.93.33-1.83v-4.6c0-1.49-.03-2.39-.1-2.72s-.17-.55-.31-.66c-.14-.12-.33-.18-.56-.18-.25,0-.55.07-.91.2l-.2-.49,3.73-1.51h.58v2.62Z"></path>
    <path class="cls-2" d="m483.11,643.33v9.95c0,.77.06,1.29.17,1.55.11.26.28.45.5.57s.62.19,1.21.19v.49h-6.02v-.49c.6,0,1.01-.06,1.22-.18.21-.12.37-.31.49-.58.12-.27.18-.79.18-1.55v-4.77c0-1.34-.04-2.21-.12-2.61-.06-.29-.16-.49-.3-.6-.14-.11-.32-.17-.55-.17-.25,0-.56.07-.92.2l-.19-.49,3.73-1.51h.59Zm-1.12-6.48c.38,0,.7.13.97.4.27.27.4.59.4.97s-.13.7-.4.97c-.27.27-.59.41-.97.41s-.7-.14-.97-.41-.41-.59-.41-.97.13-.7.4-.97.59-.4.98-.4Z"></path>
    <path class="cls-2" d="m501.2,651.38c-.33,1.63-.99,2.89-1.96,3.77-.97.88-2.05,1.32-3.23,1.32-1.41,0-2.63-.59-3.68-1.77-1.05-1.18-1.57-2.78-1.57-4.79s.58-3.53,1.74-4.75c1.16-1.22,2.55-1.82,4.17-1.82,1.22,0,2.22.32,3,.97.78.64,1.18,1.31,1.18,2.01,0,.34-.11.62-.33.83-.22.21-.53.32-.93.32-.53,0-.93-.17-1.2-.51-.15-.19-.25-.55-.3-1.08-.05-.53-.23-.94-.55-1.22-.32-.27-.75-.41-1.31-.41-.9,0-1.63.33-2.18,1-.73.88-1.09,2.05-1.09,3.5s.36,2.78,1.09,3.91c.73,1.13,1.71,1.7,2.94,1.7.88,0,1.68-.3,2.38-.91.5-.41.98-1.17,1.45-2.26l.39.19Z"></path>
    <path class="cls-2" d="m514.15,654.3c-1.27.98-2.07,1.55-2.39,1.7-.49.23-1.01.34-1.56.34-.86,0-1.56-.29-2.12-.88s-.83-1.36-.83-2.31c0-.6.14-1.13.4-1.57.37-.61,1.01-1.19,1.93-1.73.91-.54,2.44-1.2,4.56-1.97v-.49c0-1.24-.2-2.08-.59-2.54-.39-.46-.96-.69-1.71-.69-.57,0-1.02.15-1.35.46-.34.31-.51.66-.51,1.05l.03.78c0,.41-.11.74-.32.96-.21.23-.49.34-.83.34s-.61-.12-.82-.35c-.21-.24-.32-.55-.32-.96,0-.77.4-1.49,1.19-2.13.79-.65,1.91-.97,3.34-.97,1.1,0,2,.18,2.7.55.53.28.92.72,1.18,1.31.16.39.24,1.18.24,2.38v4.2c0,1.18.02,1.91.07,2.17.04.27.12.44.22.53.1.09.22.14.36.14.14,0,.27-.03.38-.1.19-.12.55-.45,1.09-.99v.76c-1.01,1.35-1.97,2.03-2.89,2.03-.44,0-.79-.15-1.05-.46-.26-.31-.4-.83-.41-1.57Zm0-.88v-4.72c-1.36.54-2.24.92-2.64,1.15-.71.4-1.22.81-1.53,1.24-.31.43-.46.91-.46,1.42,0,.65.19,1.19.58,1.62.39.43.83.64,1.34.64.68,0,1.59-.45,2.7-1.35Z"></path>
    <path class="cls-2" d="m527.17,639.63v4.07h2.89v.95h-2.89v8.03c0,.8.11,1.34.34,1.62.23.28.53.42.89.42.3,0,.59-.09.87-.28.28-.19.49-.46.65-.82h.53c-.32.88-.76,1.55-1.34,1.99s-1.17.67-1.78.67c-.41,0-.82-.11-1.22-.34-.4-.23-.69-.56-.88-.99-.19-.43-.28-1.09-.28-1.98v-8.33h-1.96v-.45c.49-.2,1-.53,1.52-1.01.52-.47.98-1.03,1.39-1.68.21-.34.5-.97.87-1.88h.42Z"></path>
    <path class="cls-2" d="m539.69,643.33v9.95c0,.77.06,1.29.17,1.55.11.26.28.45.5.57s.62.19,1.21.19v.49h-6.02v-.49c.6,0,1.01-.06,1.22-.18.21-.12.37-.31.49-.58.12-.27.18-.79.18-1.55v-4.77c0-1.34-.04-2.21-.12-2.61-.06-.29-.16-.49-.3-.6-.14-.11-.32-.17-.55-.17-.25,0-.56.07-.92.2l-.19-.49,3.73-1.51h.59Zm-1.12-6.48c.38,0,.7.13.97.4.27.27.4.59.4.97s-.13.7-.4.97c-.27.27-.59.41-.97.41s-.7-.14-.97-.41-.41-.59-.41-.97.13-.7.4-.97.59-.4.98-.4Z"></path>
    <path class="cls-2" d="m553.32,643.33c1.87,0,3.38.71,4.52,2.14.96,1.22,1.45,2.61,1.45,4.19,0,1.11-.27,2.23-.8,3.37s-1.26,1.99-2.2,2.57-1.97.87-3.12.87c-1.87,0-3.35-.75-4.45-2.23-.93-1.25-1.39-2.66-1.39-4.22,0-1.14.28-2.27.85-3.39.56-1.12,1.3-1.95,2.22-2.49.92-.53,1.89-.8,2.92-.8Zm-.42.88c-.48,0-.96.14-1.44.43s-.87.78-1.17,1.49-.45,1.63-.45,2.74c0,1.8.36,3.36,1.08,4.66.72,1.31,1.66,1.96,2.83,1.96.87,0,1.6-.36,2.16-1.08.57-.72.85-1.96.85-3.72,0-2.2-.47-3.93-1.42-5.19-.64-.87-1.46-1.3-2.45-1.3Z"></path>
    <path class="cls-2" d="m568.87,645.96c1.45-1.75,2.83-2.62,4.15-2.62.68,0,1.26.17,1.74.51.49.34.87.9,1.16,1.67.2.54.3,1.37.3,2.49v5.29c0,.78.06,1.32.19,1.6.1.22.26.4.48.53s.63.19,1.22.19v.49h-6.12v-.49h.26c.58,0,.98-.09,1.21-.26s.39-.43.48-.78c.04-.13.05-.56.05-1.27v-5.07c0-1.13-.15-1.95-.44-2.45-.29-.51-.79-.77-1.48-.77-1.07,0-2.14.59-3.2,1.76v6.53c0,.84.05,1.36.15,1.55.13.26.3.45.52.57.22.12.67.18,1.35.18v.49h-6.12v-.49h.27c.63,0,1.06-.16,1.28-.48.22-.32.33-.93.33-1.83v-4.6c0-1.49-.03-2.39-.1-2.72s-.17-.55-.31-.66c-.14-.12-.33-.18-.56-.18-.25,0-.55.07-.91.2l-.2-.49,3.73-1.51h.58v2.62Z"></path>
  </g>
  <g>
    <g class="cls-6">
      <path class="cls-3" d="m228.97,67.16c2.15-.81,3.87-1.51,3.83-1.56-.29-.29-14.23,5.3-20.81,8.34-1.14.53-2.12.92-2.16.88s2.87-1.53,6.48-3.3c10.33-5.06,17.65-7.86,30.26-11.59,7.47-2.21,12.49-3.49,17.76-4.54,13.62-2.7,26.24-4.3,38.69-4.9,2.19-.11,7.48-.07,7.36.05-.06.06-.76.32-1.56.59-1.25.42-1.49.59-1.67,1.19-.11.39-.27.84-.35,1.01-.08.17-2.46,1.54-5.29,3.05-2.83,1.51-5.8,3.09-6.61,3.52-.81.43-1.51.74-1.57.68-.28-.28.76-4.19,1.34-5.02,1.18-1.7,1.93-2.09,6.17-3.22,2.17-.58,4.34-1.12,4.83-1.21,1.88-.33.58-.32-2.07.03-3.36.44-4.95.83-7.58,1.87-1.09.43-4.29,1.48-7.1,2.32-2.81.85-7.48,2.38-10.38,3.4-2.9,1.02-5.32,1.82-5.37,1.77-.2-.2,5.07-3.68,7.07-4.67,3.27-1.61,5.97-2.41,11.49-3.4,4.92-.88,6.02-1.32,1.48-.6-3.38.54-13.11,2.76-12.83,2.93.13.08-.11.29-.53.46-2.12.85-7.48,3.54-8.64,4.34-.73.5-1.98,1.49-2.78,2.2-1.34,1.18-2.05,1.53-8.5,4.23-8.14,3.41-10.57,4.48-17.28,7.62-1.52.71-2.8,1.25-2.85,1.2-.2-.2,4.96-5.94,6.56-7.31.94-.8,2.79-2.18,4.12-3.07,2.35-1.57,2.56-1.66,9.19-3.78,7.14-2.29,11.05-3.44,16.83-4.95,4.6-1.2,4.02-1.2-1.09,0-5.99,1.41-10.51,2.64-15.95,4.33-1.01.31-1.89.53-1.94.48-.09-.09,7.16-3.11,9.39-3.91,2.05-.73.83-.48-2.39.49-4.14,1.25-7.77,2.67-11.59,4.53-1.72.84-5.05,2.22-7.39,3.06-8.89,3.19-14.33,5.33-21.25,8.35-2.36,1.03-4.33,1.83-4.37,1.78-.15-.15,8.89-5.97,11.43-7.36,2.38-1.3,2.98-1.59,7.28-3.5,2.18-.97,7.67-2.73,14.66-4.7,1.64-.46,11.61-3.23,11.61-3.23,0,0-10.56,2.68-12.67,3.27-2.81.79-4.67,1.17-4.67,1.17,0,0,.99-.35,1.58-.58.9-.35,6.15-1.97,6.15-1.97,0,0-8.01,2.38-10.59,3.31-2.31.83-5.86,2.11-7.89,2.83-2.03.72-3.59,1.37-3.47,1.45.12.07-2.21,1.39-5.17,2.94-6.25,3.26-9,4.93-13.04,7.94-2.06,1.53-3.99,2.71-6.55,3.98-8.39,4.18-17.24,9.03-23.46,12.84-1.39.85-2.5,1.46-2.45,1.34.04-.12.82-.87,1.72-1.68.9-.8,2-1.79,2.45-2.19,4.56-4.07,7.4-6.28,12.15-9.45,5.64-3.76,18.1-9.6,29.98-14.07Zm61.89-11.86c-.71.26-3.28,1.19-5.73,2.07-2.44.88-6.65,2.48-9.35,3.56l-4.91,1.95-1.1,1.82c-.61,1-1.26,2.37-1.46,3.06-.36,1.24-1.11,6.92-.94,7.09.05.05,3.7-1.91,8.11-4.35,4.41-2.44,9.23-5.1,10.71-5.9,1.48-.81,2.72-1.49,2.75-1.52.04-.03.16-.93.29-2,.24-2.07.69-2.96,2.71-5.31.95-1.1.81-1.16-1.08-.47Zm16.38-.52c-.09,0-.68.33-1.32.74-.64.4-3.52,2.15-6.42,3.89-2.89,1.73-5.38,3.25-5.53,3.37-.46.37.85,3.64,2.46,6.14,1.06,1.65,4.28,5.97,4.44,5.97.45-.01,7.54-6.03,11.38-9.66l2.34-2.21-2.58-2.54c-1.42-1.39-3.04-3.25-3.59-4.11-.56-.87-1.08-1.58-1.17-1.58Zm-61.74,11.05c.7-.55-.15-.27-5.37,1.77-6.85,2.68-8.28,3.29-17.18,7.28l-7.48,3.36-3.17,3.17c-1.75,1.74-3.8,4.06-4.56,5.16-1.48,2.11-4.5,6.76-4.98,7.67-.35.66-.85.9,5.03-2.48,5.48-3.16,12.35-6.87,19.41-10.49l5.41-2.78,1.39-1.86c2.78-3.73,4.13-5.06,9.05-8.88,1.15-.9,2.26-1.76,2.45-1.91Zm14.97,1.55c-4.42,1.97-11.25,5.2-18.4,8.68l-4.49,2.19-.7,1.57c-1.5,3.35-2.15,6.02-2.45,10.02-.08,1.09-.21,2.65-.27,3.47-.07.82-.04,1.44.07,1.38.1-.06,3.03-1.84,6.5-3.95,6.73-4.1,12.66-7.63,18.39-10.95l2.23-1.29.15-2.58c.17-2.97.67-4.66,2.34-7.99.6-1.19,1.08-2.21,1.08-2.28,0-.24-.39-.08-4.44,1.73Zm30.12.96c-.6-1.48-1.18-2.71-1.29-2.74-.11-.03-.77.29-1.48.72-.71.43-5.49,3.28-10.64,6.34s-9.38,5.58-9.42,5.62c-.14.12,1.1,4.72,1.71,6.33.55,1.46,4.61,9.55,5,9.97.09.1,1.26-.63,2.61-1.62,7.3-5.39,18.85-14.09,19.08-14.36.21-.25-.06-.77-1.25-2.42-2.02-2.8-3.02-4.61-4.33-7.82Zm17.25,6.43l-4.18,3.69,4.06,4c4.18,4.11,5.19,5.07,9.2,8.65,1.29,1.15,2.72,2.44,3.18,2.88l.84.79,1.42-1.47c2.04-2.12,2.85-3.03,5.28-5.92,2.1-2.49,6.7-8.66,6.7-8.98,0-.09-1.71-1.42-3.8-2.95-2.09-1.54-5.79-4.35-8.22-6.26-2.43-1.91-4.53-3.51-4.68-3.56-.14-.05-1.47,1.15-2.95,2.68-1.48,1.52-4.57,4.43-6.86,6.46Zm-123.6,20.61c-5.96,3.67-6,3.7-7.72,5.8-2.58,3.14-3.71,4.67-5.27,7.18-1.51,2.42-5.79,10.67-5.62,10.84.05.05.99-.57,2.08-1.39,5.46-4.12,13.98-9.93,23.46-16l3.97-2.54.98-1.73c2.5-4.43,4.76-7.58,7.77-10.83.59-.63,1.22-1.33,1.42-1.54.19-.22.92-.98,1.62-1.71.7-.72,1.23-1.36,1.17-1.41-.06-.05-2,.9-4.31,2.12-6.21,3.28-12.8,7.06-19.55,11.22Zm28.43-3.56c-1.67.99-5.11,3.03-7.63,4.53l-4.59,2.73-.97,3.04c-1.5,4.7-1.89,7.18-2.26,14.23-.13,2.48-.1,2.98.15,2.82.17-.11,1.68-1.15,3.36-2.32,6.57-4.58,11.4-7.84,20.46-13.79,2.89-1.9,5.38-3.5,5.53-3.56.18-.07.33-.98.42-2.6.25-4.64.57-6.29,2.03-10.65.77-2.3,1.37-4.2,1.34-4.24-.04-.03-1.22.57-2.64,1.34-6.01,3.25-12.36,6.8-15.19,8.47Zm101.85,5.37c-2.5-2.25-11.02-10.74-13.41-13.36l-1.75-1.92-3.26,2.63c-3.05,2.46-10.79,8.49-16.21,12.63-1.69,1.29-2.36,1.93-2.26,2.18.24.61,4.21,5.93,6.44,8.61,1.18,1.41,3.68,4.3,5.57,6.41,1.89,2.11,3.66,4.1,3.95,4.43.47.54.55.56.94.23,3.81-3.25,8.82-7.61,10.59-9.22,2.76-2.51,11.21-10.41,11.32-10.59.07-.11-.8-1.02-1.92-2.03Zm-144.28,5.85c4.19-2.95,5.93-4.35,8.53-6.86,3.85-3.71,6.95-6.21,13.3-10.74,2.56-1.82,4.55-3.31,4.44-3.31s-2.1,1.09-4.42,2.42c-5.16,2.97-7.55,4.52-14.72,9.58-5.66,3.99-6.69,4.77-11.57,8.81-4.51,3.72-6.69,5.83-12.16,11.7-4.99,5.37-5.15,5.61-1.52,2.43,5.36-4.71,9.86-8.19,18.12-14.01Zm92.32-18.17c-.41-1.51-.87-2.74-1.01-2.73-.14,0-1.21.61-2.37,1.33-1.16.72-4.05,2.52-6.43,4-2.38,1.48-7.46,4.68-11.3,7.12l-6.98,4.44.16,1.07c.63,4.36,2.11,9.13,4.79,15.41.78,1.82,1.41,3.43,1.41,3.57s.14.21.31.14c.26-.1,4.83-3.45,15.28-11.19,1.18-.87,4.33-3.18,7.01-5.12,2.68-1.94,4.9-3.61,4.94-3.71.04-.1-.81-1.9-1.87-4.01-2.02-4.01-2.69-5.76-3.93-10.32Zm63.61,14.29c.02.2,8.62,7.37,20.08,16.71,3.54,2.89,4.31,3.42,4.56,3.16.73-.79,4.15-5.48,5.78-7.92,2.37-3.56,7.07-11.93,6.82-12.15-.11-.1-4.4-3.15-9.55-6.79-5.14-3.64-10.42-7.38-11.72-8.33-1.3-.95-2.48-1.72-2.61-1.72s-.75.79-1.37,1.76c-2.34,3.66-5.09,7.19-10.29,13.17-.94,1.08-1.7,2.02-1.69,2.1Zm-98.76,4.53s-.32.13-.63.36c-.31.24-2.82,1.95-5.59,3.82-6.99,4.71-16.81,11.62-22.58,15.88l-1.19.88.44,2.88c.63,4.12,1.27,6.83,2.56,10.83,1.53,4.71,3.32,9.61,3.56,9.68.1.03,1.93-1.35,4.06-3.06,5.54-4.46,12.32-9.78,19.63-15.4l6.35-4.88-1.23-2.87c-2.39-5.57-3.13-7.9-4.47-14.15-.46-2.15-.87-3.94-.91-3.97Zm32.56,44.59l2.32-1.93c1.27-1.06,3.83-3.21,5.68-4.77,9.61-8.13,12.35-10.44,15.93-13.45,2.15-1.81,3.92-3.37,3.92-3.47s-1.5-1.91-3.33-4.01c-4.56-5.24-7.42-8.92-12.81-16.5-.33-.46-.48-.37-4.7,2.84-2.4,1.82-6.24,4.73-8.53,6.47-4.98,3.77-14.13,10.76-14.43,11.01-.54.47,5.77,10.2,12.07,18.62l3.89,5.2Zm-127.37-1.11c-.74,1.29.09.75,2.53-1.66,6.68-6.59,9.65-9.24,19.54-17.51l3.95-3.3,1.55-3.35c2.39-5.15,3.53-6.97,9.47-15.09.96-1.32,1.68-2.4,1.58-2.39s-2.17,1.43-4.61,3.18c-5.03,3.6-9,6.76-15.43,12.25q-6.14,5.25-9.11,9.7c-3.01,4.5-4.64,7.51-7.35,13.56-1.04,2.31-1.99,4.39-2.12,4.61Zm29.97-19.64c-1.56,5.85-1.94,8.54-2.38,16.66-.12,2.18-.18,4.01-.13,4.05.05.05,1.17-.86,2.5-2.01,4.93-4.27,12.86-10.58,22.63-18.01l4.56-3.47.15-3.96c.2-5.3.61-7.57,2.55-14.28.76-2.62.76-2.65.51-2.65-.1,0-2.65,1.64-5.67,3.65-7.63,5.08-10.73,7.28-20.57,14.61l-3.39,2.53-.77,2.87Zm180.47-5.67c-4.33-3.61-13.44-11.36-17.55-14.95-1.84-1.61-3.47-2.95-3.62-2.97-.15-.03-1.85,1.49-3.78,3.36-3.79,3.69-10,9.44-15.26,14.1-1.81,1.61-3.3,3.03-3.31,3.16-.04.57,6.94,7.3,19.73,19.03l5.14,4.71,4.58-4.62c2.52-2.54,5.68-5.83,7.04-7.31,3.25-3.55,10.24-11.54,10.24-11.7,0-.07-1.44-1.33-3.21-2.8Zm52.85.64c-10.84-7.98-14.47-10.64-17.85-13.06-2.12-1.52-4.73-3.39-5.79-4.17-1.06-.77-2.03-1.4-2.16-1.4s-.91,1.35-1.74,3.01c-1.98,3.96-3.45,6.35-7.64,12.49-1.91,2.8-3.48,5.18-3.48,5.28s.92.92,2.05,1.83c1.13.9,3.62,2.92,5.55,4.49,8.32,6.75,8.88,7.21,17.98,14.7,1.77,1.46,3.25,2.61,3.3,2.56.36-.36,4.9-7.85,6.19-10.21,1.83-3.35,6.36-13.06,6.25-13.39-.04-.12-1.24-1.08-2.67-2.14Zm-202.46,34.6c1.64-1.39,2.98-2.66,2.98-2.82s-.53-1.71-1.18-3.43c-2.19-5.81-3.37-10.42-4.57-17.86-.23-1.41-.47-2.64-.54-2.71-.07-.08-1.03.55-2.12,1.39-11.25,8.69-27.35,22.06-27.54,22.86-.12.51,1.07,8.13,1.71,10.94.59,2.62,1.67,6.32,3.54,12.23l1.06,3.33,3.67-3.45c6.85-6.44,14.95-13.65,23-20.47Zm159.48-26.99l-1.98,2.37c-6.09,7.27-8.13,9.55-15.01,16.78-2.04,2.14-3.93,4.18-4.21,4.53l-.5.64.92.84c.51.46,2.91,2.63,5.34,4.82,2.43,2.19,5.64,5.08,7.14,6.43,1.49,1.35,5.15,4.63,8.12,7.3,6.47,5.8,5.85,5.24,7.01,6.33l.94.89,3.96-4.63c6.2-7.24,17.14-21.29,17.14-22.01,0-.14-1.3-1.34-2.88-2.66-1.58-1.32-7.6-6.33-13.38-11.15-5.78-4.81-10.98-9.14-11.56-9.62l-1.05-.87Zm-245.69,49.92c1.34-2.29,5.99-9.11,8.01-11.75,1.28-1.67,4.38-5.49,6.88-8.48,2.58-3.09,4.68-5.82,4.86-6.31.17-.48.98-2.45,1.81-4.38,2.08-4.88,4.19-8.62,9.52-16.91.61-.95,1.06-1.76,1.01-1.82-.05-.05-1.54,1.42-3.3,3.28-4.13,4.36-5.41,5.9-10.41,12.54-4.56,6.05-6.02,8.17-8.87,12.8-3.42,5.57-4.78,8.39-9.11,18.93-1.14,2.77-1.31,3.67-.39,2.1Zm45.93-47.12c-6.96,5.78-9.35,7.98-18.23,16.74l-4.81,4.74-.87,3.65c-1.56,6.55-1.95,9.79-2.39,19.72-.15,3.37-.15,3.39.31,2.92.25-.26,2.08-2.25,4.06-4.43,5.3-5.84,12.2-12.71,21.06-20.95l.86-.8.15-4.09c.22-6.28.68-9.3,2.55-16.94.43-1.74.71-3.17.62-3.17s-1.57,1.17-3.3,2.61Zm71.93,45.61c4.53-4.11,21.3-18.7,25.54-22.23.98-.81,1.87-1.57,1.99-1.68.12-.12-.51-1.15-1.51-2.49-4.02-5.34-6.88-9.59-10.87-16.19-1.82-3.02-3.41-5.52-3.53-5.56-.12-.04-2.06,1.37-4.3,3.12-9.88,7.75-25.7,20.63-25.7,20.93,0,.37,3.24,6.66,5.03,9.78,2.67,4.64,10.22,16.4,10.62,16.54.11.04,1.34-.96,2.73-2.23Zm64.34,2.27c.41,0,28.55-26.03,28.55-26.4,0-.1-1.34-1.43-2.98-2.95-5.64-5.23-6.97-6.52-14.33-13.82-4.05-4.03-7.47-7.32-7.6-7.32s-.91.59-1.74,1.32c-.83.73-2.1,1.82-2.8,2.43-.71.61-2.97,2.57-5.03,4.35-2.06,1.78-7.03,6.06-11.05,9.51-4.02,3.45-7.3,6.38-7.3,6.5,0,.18,6.84,8.08,10.37,11.97,2.62,2.89,13.74,14.41,13.91,14.41Zm-168.51-16.1c-4.87,5.78-6.98,8.62-12.07,16.23l-4.54,6.79-1.03,4.61c-1.49,6.65-1.75,9.01-2.35,21.26-.08,1.64-.06,2.98.05,2.98.11,0,1.12-1.58,2.26-3.5,3.31-5.61,6.26-9.94,11.72-17.18,2.81-3.73,5.35-7.08,5.65-7.44.51-.61.55-.87.55-3.39,0-6.35.66-11.62,2.52-20.2.49-2.28.83-4.15.76-4.15s-1.66,1.8-3.51,4Zm33.74,2.61c-.6-3.63-1.15-6.6-1.22-6.6-.07,0-.92.76-1.89,1.67-8.02,7.62-13.22,12.96-20.8,21.34-.58.64-1.6,1.75-2.28,2.48-1.41,1.51-1.39,1.4-.87,5.49.54,4.24,1.01,6.95,1.76,10.1.69,2.92,3.89,14.2,4.17,14.71.1.18.63-.3,1.44-1.28,5.93-7.2,10.69-12.55,17.63-19.81,2.46-2.57,5.11-5.36,5.9-6.19l1.43-1.52-1.38-4.16c-1.96-5.91-2.64-8.75-3.87-16.24Zm25.22,40.86c.58.96,1.97,3.3,3.09,5.2l2.04,3.46,7.41-7.43c4.07-4.09,10.8-10.62,14.94-14.53,6.51-6.13,7.5-7.16,7.3-7.53-.13-.24-1.43-2.25-2.88-4.47-3.47-5.29-6.68-10.85-9.85-17.09-1.41-2.78-2.63-5.06-2.7-5.06-.07,0-.6.39-1.17.87-.57.48-1.09.93-1.15,1-.06.07-2.17,1.91-4.68,4.08-2.51,2.17-5.14,4.49-5.84,5.16-.71.67-2.03,1.88-2.93,2.7-2.9,2.63-13.78,12.93-13.86,13.14-.11.26,1.29,3.42,4.02,9.05,1.32,2.72,4.37,8.29,6.29,11.47Zm71.14,8.35c.15-.04,2.32-2.02,4.81-4.41,5.21-4.99,12.31-11.63,20.77-19.4,1.6-1.47,3.47-3.2,4.16-3.84l1.24-1.17-1.21-1.29c-.67-.71-2.06-2.18-3.1-3.28-4.32-4.55-5.33-5.64-8.1-8.76-1.6-1.8-4.9-5.61-7.34-8.47-2.44-2.86-4.49-5.2-4.56-5.19-.07,0-2.65,2.23-5.74,4.94-7.09,6.23-14.72,12.99-16.71,14.81-.85.77-2.98,2.7-4.74,4.29-1.76,1.59-3.2,2.93-3.2,2.99,0,.43,10.02,13.13,14.37,18.21,1.43,1.67,4.06,4.75,5.85,6.85,1.79,2.09,3.37,3.78,3.52,3.74Zm62.75-11.87c6.2,5.9,9.59,9.13,11.35,10.81l1.41,1.35,7.25-7.31c3.99-4.02,8.36-8.46,9.7-9.88,2.22-2.33,8.93-9.47,10.54-11.23l.66-.71-5.67-5.17c-3.12-2.84-5.99-5.47-6.39-5.83-4.06-3.74-17.48-15.87-17.61-15.92-.09-.03-.59.34-1.09.83-6.31,6.11-15.68,14.96-23.42,22.11-2.35,2.17-4.21,4.02-4.15,4.12.15.24,11.18,10.9,17.42,16.83Zm-219.08,1.36c.88-2.35,3.83-9.18,5.94-13.74,1.16-2.51,2.51-5.57,3-6.79,1.24-3.08,3.35-7.83,5.48-12.35,1.79-3.79,2.25-5.1.98-2.77-4.96,9.08-10.35,21.01-13.83,30.61-.85,2.34-1.7,4.67-1.89,5.17-.19.5-.3.95-.24,1.01.06.06.31-.46.57-1.14Zm-9.21,49.12c.08-.07.71-2.23,1.41-4.79,2-7.29,3.77-11.99,8.22-21.82l1.97-4.34v-2.57c0-3.58.4-9.57.84-12.63.2-1.41.89-5.19,1.52-8.4.63-3.21,1.11-5.86,1.07-5.91s-1.04,1.84-2.21,4.19c-2.64,5.31-3.88,8.43-6.46,16.31-2.81,8.58-4.57,15.81-5.37,21.97-.44,3.43-1.25,18.24-.98,17.98Zm36.34-58.37c-.16-1.19-.34-2.16-.42-2.15-.07,0-.76.82-1.53,1.81-4.18,5.4-7.47,9.89-9.45,12.91-3.98,6.06-9.14,14.56-9.14,15.06,0,.7.66,6.17,1.07,8.9.62,4.13,1.46,7.55,4.89,19.87.29,1.03.6,1.85.69,1.82.09-.03,1.12-1.76,2.29-3.86,4.27-7.68,6.46-11.09,13.89-21.59l3.81-5.4-1.29-4.19c-2.27-7.34-3.54-13.51-4.81-23.18Zm18.59,22.3c-1.95,2.31-3.67,4.42-3.83,4.68-.25.41-.06,1.03,1.52,4.73,2.05,4.82,5.08,11.04,7.64,15.69,5.21,9.46,6.11,10.98,6.4,10.75.16-.13.9-1.05,1.65-2.04,2.54-3.36,8.24-10.44,10.48-13.03,2.23-2.57,7.69-8.78,10.83-12.3,1.57-1.77,2.86-3.34,2.86-3.49s-.99-1.92-2.19-3.93c-1.2-2.01-2.8-4.71-3.54-6-1.33-2.3-6.53-12.79-8.55-17.24-.57-1.25-1.09-2.28-1.15-2.28-.07,0-.75.68-1.52,1.51-.77.83-2.98,3.17-4.91,5.2-6.12,6.44-7.33,7.81-15.69,17.75Zm78.86,29.6c3.35-3.57,10.1-10.53,15-15.47,4.9-4.93,8.91-9.06,8.91-9.16s-.98-1.33-2.17-2.72c-6.44-7.5-11.26-13.5-18.14-22.59-1.72-2.27-3.14-4.13-3.16-4.13s-2.45,2.27-5.41,5.06c-5.48,5.16-24.42,24.13-24.42,24.46,0,.44,8.15,11.74,13.36,18.52,2.45,3.18,9.26,11.81,9.64,12.22.23.24,1.51-1,6.38-6.19Zm99.65-24.6c0-.1-2.13-2.22-4.73-4.71-7.81-7.49-11.88-11.44-18.79-18.26-3.62-3.57-6.62-6.49-6.66-6.49-.05,0-1.61,1.44-3.47,3.2-4.79,4.51-9.62,9.03-9.93,9.3-.15.13-1.26,1.18-2.47,2.34-1.21,1.16-4.15,3.95-6.53,6.19-7.12,6.74-8.65,8.24-8.65,8.49,0,.13.5.77,1.11,1.43,4.3,4.62,7.47,8.02,9.16,9.83,1.76,1.88,13.45,14,17.58,18.23l1.59,1.63,5.32-5.27c2.93-2.9,10.08-9.88,15.9-15.5,5.82-5.63,10.58-10.31,10.58-10.41Zm-221.58,7.47c-.08,0-.97,1.82-1.99,4.03-3.56,7.73-4.91,11.45-7.98,21.99l-1.55,5.34.51,4.36c.63,5.43,1.21,8.84,2.12,12.5,1.22,4.92,4.31,15.57,4.46,15.4.08-.09.57-1.9,1.1-4.02,1.91-7.71,3.07-11.13,7.26-21.31l2.85-6.94-1.08-3.47c-2.41-7.77-3.49-12.86-4.92-23.28-.35-2.54-.7-4.61-.77-4.61Zm36.21,6.48c-1.58-3.57-2.94-6.48-3.01-6.48-.08,0-1.21,1.5-2.51,3.33-6.07,8.52-8.46,12.28-14.45,22.8-2.89,5.08-2.97,5.24-2.68,5.96,3.01,7.55,6.55,15.03,10.41,22.01,1.14,2.06,2.81,5.08,3.71,6.72.9,1.63,1.69,2.97,1.75,2.97.06,0,1.09-1.87,2.28-4.14,3.14-6.02,7.93-14.23,10.13-17.35,1.35-1.91,6.85-10.47,6.93-10.79.06-.21-1.12-2.52-2.62-5.14-3.59-6.29-6.45-12-9.95-19.9Zm46.65,57.37l2.68-3.58c5.98-7.98,10.64-13.78,19.39-24.11,1.61-1.9,3.17-3.76,3.47-4.13l.54-.67-3.23-4.08c-1.78-2.24-3.94-4.98-4.81-6.08-1.56-1.98-6.73-9.04-8.96-12.22-4.83-6.91-6.31-8.98-6.42-8.98-.07,0-1.12,1.12-2.34,2.5-1.22,1.37-2.71,3.03-3.3,3.68-3.81,4.17-10.91,12.81-17.38,21.17-1.14,1.48-2.34,2.98-2.66,3.33l-.58.64,3.23,4.85c3.94,5.91,6.81,9.98,10.52,14.91,3.09,4.09,8.61,11.3,9.36,12.21l.47.57Zm77.13-55.81c-2.57-2.82-5.31-5.79-6.08-6.6l-1.4-1.47-8.08,8.13c-7.92,7.97-11.06,11.26-19.74,20.64-1.01,1.09-1.99,2.11-2.18,2.27-.29.24,0,.69,1.89,2.92,2.87,3.39,10.66,12.34,12.07,13.86.6.64,2.24,2.43,3.65,3.97,1.41,1.54,4.5,4.89,6.87,7.44l4.31,4.64.66-.75c.36-.41,1.63-1.81,2.82-3.11,1.19-1.29,2.79-3.04,3.57-3.88,4.27-4.66,7.22-7.76,16.31-17.11,3.95-4.07,7.19-7.5,7.19-7.62s-1.97-2.26-4.38-4.76c-8.06-8.35-11.04-11.52-17.48-18.58Zm-173.22,21.17c.3-5.76.62-10.12,1.07-14.58.26-2.56.41-4.7.34-4.77-.07-.07-.13-.08-.13-.03s-.26,1.83-.58,3.95c-1.8,12.01-2.73,24.36-2.66,35.18.03,5.33.2,4.45.66-3.39.15-2.51.46-6.61.71-9.12.24-2.51.51-5.77.58-7.25Zm6.42,73.75l-.11-1.64c-.74-10.86-.68-13.39.6-25.38l.46-4.34-.95-2.9c-2.64-8.08-3.67-12.67-5.14-22.84-.51-3.54-.97-6.47-1.02-6.52-.05-.05-.21.62-.35,1.5-1.02,6.33-1.08,7.19-1.06,17.96.01,8.4.1,11.23.42,14.03.62,5.34,1.27,9.54,1.93,12.51.64,2.85,3.02,11.1,4.4,15.19l.82,2.45Zm22.16-1.3c2.12-8.68,3.46-12.74,7.58-23.03l2.84-7.08-2.78-4.75c-3.62-6.19-7.05-13.05-10.49-20.95-1.53-3.51-2.85-6.43-2.94-6.48-.09-.06-1.13,2.14-2.3,4.88-3.19,7.43-4.59,11.6-7.49,22.24l-1.4,5.14,1.91,4.32c3.33,7.55,5.97,12.45,12.65,23.48l2.12,3.49.31-1.27Zm43.49-.12c2.74-5.41,7.84-13.86,13.97-23.13,2.04-3.09,3.9-5.9,4.12-6.25l.41-.63-2.48-3.11c-6.04-7.55-9.72-12.58-16.3-22.27-2.53-3.73-4.67-6.8-4.76-6.83-.09-.03-1.16,1.44-2.38,3.27-6.07,9.09-8.56,13.27-16.12,27.12l-1,1.82.64.98c2,3.04,5.71,8.28,8.47,11.97,3.07,4.1,4.65,6.08,10.92,13.76,1.67,2.04,3.2,3.92,3.41,4.19.38.48.4.46,1.09-.9Zm61.44-56.61c-2.67-3.12-4.88-5.67-4.91-5.67s-.42.39-.88.88c-1.31,1.39-8.31,9.75-11.79,14.08-2.52,3.13-7.44,9.45-11.18,14.34-2.04,2.67-2.25,3.04-1.96,3.39,4.86,5.79,11.51,13.19,17.57,19.54,2.2,2.31,4.21,4.42,4.46,4.69s1.81,1.87,3.45,3.54l2.98,3.04,4.06-5.05c5.87-7.3,7.99-9.84,15.11-18.04,3.51-4.04,6.53-7.53,6.72-7.75.31-.37.04-.73-3.14-4.09-7.16-7.58-12.07-13.07-20.51-22.92Zm-106.61,65.16l-1.97-3.1c-5.08-7.99-7.61-12.65-11.97-22.03-1.43-3.09-2.64-5.65-2.69-5.7-.05-.05-.14.16-.2.47-.16.74-.54,3.83-.96,7.68-.4,3.69-.45,12.67-.11,18.7.23,4.01.25,4.13,1.1,5.96,2.12,4.57,5.32,10.77,7.01,13.56,2.08,3.43,7.89,12.45,8.54,13.26l.43.53-.13-1.05c-.07-.58-.25-3.09-.39-5.59-.29-5.06-.11-9.12.8-17.75l.52-4.95Zm40.83.01l-1.14-1.38c-.63-.76-2.46-2.94-4.07-4.85-5.2-6.19-7.68-9.43-14.45-18.91-2.11-2.96-3.92-5.47-4.03-5.58-.11-.11-.34.15-.53.58-.19.43-.89,2.05-1.56,3.6-1.95,4.49-3.7,9.1-4.79,12.62-1.42,4.6-3.87,13.32-3.87,13.79,0,.39,4.36,6.38,7.91,10.87,2.8,3.54,15.5,18.23,15.92,18.41.07.03.54-1.49,1.04-3.39,1.75-6.69,3.21-10.74,7.86-21.74l1.7-4.03Zm32.33-27.43c-1.66-1.89-3.05-3.44-3.09-3.44s-.61.76-1.27,1.69c-2.05,2.9-7.79,11.63-9.33,14.2-1.7,2.82-3.11,5.25-6.36,10.95l-2.31,4.06,1.12,1.21c.62.67,2.49,2.68,4.15,4.48,2.91,3.14,17.57,17.9,21.53,21.69l1.91,1.82,2.98-4.98c3.44-5.74,7.41-11.74,12.5-18.89,1.97-2.76,3.59-5.15,3.6-5.29.01-.15-1.92-2.25-4.3-4.68-7.62-7.76-12.87-13.44-21.14-22.83Zm-91.65,31.16c-.47-1.86-1.42-5.3-2.13-7.63-.7-2.33-2.01-7.07-2.89-10.52-.89-3.45-1.62-6.05-1.63-5.76-.05,1.47,3.22,15.71,5.12,22.29,1.86,6.42,5.79,18.12,6.02,17.89.05-.05-.33-1.44-.85-3.09-1.1-3.5-2.45-8.39-3.64-13.17Zm20.21,38.45c-1.49-5.79-1.7-6.43-2.59-7.71-5.59-8.07-7.67-11.56-12.16-20.4-1.91-3.76-3.47-6.63-3.47-6.38,0,.78,1.36,7.02,2.07,9.48.81,2.81,1.3,4.18,4.07,11.45,2.37,6.21,6.97,15.73,9.69,20.04,2.07,3.28,9.49,13.96,9.7,13.96.09,0-.37-1.13-1.01-2.51-3.2-6.83-4.11-9.44-6.29-17.94Zm27.27-6.26l-1.77-1.9c-7.01-7.51-9.73-10.74-17.61-20.89-2.52-3.25-4.63-5.83-4.69-5.73-.22.36-1.09,7.75-1.32,11.16-.22,3.26.01,13.94.36,16.63.1.8.58,1.54,2.72,4.21,4.9,6.1,8.86,10.54,15.4,17.26,1.75,1.8,3.84,3.96,4.65,4.79l1.47,1.52-.15-1.52c-.7-6.85-.6-11.97.41-20.89l.53-4.65Zm19.03-28.05c-.28-.35-.58-.64-.68-.64s-1.18,2.29-2.42,5.08c-3.08,6.99-4.7,11.59-7.68,21.89l-.54,1.85,5.6,5.51c3.08,3.03,7.33,7.09,9.44,9.02,6,5.48,13.4,12.04,13.57,12.04.09,0,.45-1.03.8-2.28,1.75-6.2,3.04-9.54,7.42-19.18l2.37-5.22-3.84-3.65c-6.94-6.6-22.31-22.21-24.05-24.43Zm-15.31,73.2c-.81-2.31-3.39-11.26-3.39-11.74,0-.12-2.66-2.92-5.9-6.21-5.55-5.63-9.57-10.1-15.47-17.2-1.39-1.67-2.62-3.08-2.74-3.12-.12-.04-.16.17-.1.47.86,3.91,2.38,9.71,3.06,11.65.47,1.35,1.96,5.05,3.32,8.22l2.47,5.76,3.16,3.59c1.74,1.97,4.96,5.37,7.16,7.56,4,3.98,13.02,12.31,13.5,12.48.14.05-.33-1.03-1.05-2.4-1.77-3.38-3.01-6.16-4.01-9.05Zm31.27-11.67c.05-.51-.56-1.14-4.22-4.29-7.49-6.47-10.15-8.91-18.66-17.12-2.98-2.87-5.48-5.22-5.56-5.22s-.19.13-.25.29c-.05.16-.34,2.03-.63,4.15-.44,3.19-.53,4.93-.54,10.05,0,3.41.08,7.43.19,8.95l.2,2.75,4.13,3.68c5.72,5.1,9.05,7.9,15.7,13.17,8.06,6.4,8.64,6.84,8.78,6.7.07-.07,0-1.37-.15-2.89-.36-3.71-.15-10.95.47-15.76.27-2.12.52-4.13.55-4.46Zm1.93,33.82l-1.69-5.17-1.49-1.14c-10.77-8.23-13.21-10.2-22-17.73-2.67-2.29-4.9-4.15-4.97-4.15s-.12.13-.12.29c0,.45,1.08,4.74,1.71,6.84.96,3.18,2.19,6.12,4.64,11.15l2.36,4.84,2.6,2.05c3.27,2.58,7.4,5.67,10.88,8.14,3.98,2.83,15.02,10.2,15.12,10.1.05-.05-.67-1.34-1.59-2.87-2.47-4.1-3.56-6.58-5.45-12.34Z"></path>
      <path class="cls-4" d="m350.89,52.83c-.19-.07-.13-.13.14-.14.25-.01.38.05.31.12-.08.08-.28.09-.45.02Zm6.53,1.15c.08-.08-.06-.13-.31-.12-.27.01-.33.07-.14.14.17.07.37.06.45-.02Zm.65.25c-.35-.08-.36-.11-.07-.13.59-.04,3.23.54,8.96,1.98,6.39,1.6,10.38,2.75,16.2,4.66,5.86,1.92,18.8,7.09,18.59,7.42-.1.16,0,.19.25.09.22-.08.35-.07.28.04-.07.11.48.44,1.22.74,4.7,1.91,12.26,5.96,18.05,9.66,1.87,1.2,6.8,4.78,8.88,6.46.86.7.41.58-1.23-.31-8.63-4.68-15.67-8.18-23.19-11.52-2.44-1.09-6.25-3.02-8.45-4.3-5.42-3.13-9.11-4.99-13.22-6.64-1.89-.76-3.41-1.42-3.37-1.46.04-.04,2.85.87,6.24,2.02,3.39,1.15,6.2,2.06,6.24,2.02.1-.1-7.19-2.71-10.51-3.75-1.51-.47-2.86-.78-3.02-.69-.16.1-.22.07-.13-.06.17-.28-16.45-5.05-21.7-6.22Zm36.58,11.3c.19.12.46.23.58.23s.08-.1-.12-.23c-.19-.12-.46-.23-.58-.23s-.08.1.12.23Zm44.25,27.5c-3.08-3.24-3.13-3.28-6.79-5.36-6.2-3.52-11.13-6.08-18.5-9.63-3.88-1.87-7.12-3.4-7.19-3.4s.86.79,2.06,1.76c3.36,2.71,6.28,5.72,9.5,9.76,2.63,3.32,3.11,3.79,4.59,4.65,9.39,5.43,15.6,9.28,24.21,14.97,1.86,1.23,3.42,2.21,3.46,2.17.12-.12-2.37-4.1-3.93-6.3-1.84-2.6-3.45-4.46-7.41-8.63Zm-5.56-6.73c2.44,1.87,6.18,4.5,8.3,5.84,6.85,4.32,8.72,5.63,18.47,13l3.62,2.74-1.77-1.71c-2.67-2.58-9.32-8.25-12.61-10.74-7.04-5.35-15.84-11.16-22.55-14.92-3.37-1.88-9.88-5.29-9.68-5.06.08.09,1.6,1.01,3.39,2.05,4.21,2.45,7.36,4.62,12.83,8.81Zm19.67,26.99c-.28-.55-2.75-2.3-9.73-6.94-4.49-2.98-6.67-4.36-12.97-8.2-2.06-1.25-4.4-2.69-5.21-3.19-1.49-.92-1.79-1.05-1.64-.73.05.1.43.91.86,1.81,2.08,4.39,2.69,6.45,3.77,12.77.41,2.36.76,4.3.78,4.3.18.03,9.26,6.32,12.08,8.37,1.66,1.21,11.26,8.44,14.68,11.05,1.45,1.11,2.68,1.98,2.72,1.93.17-.18-.78-6.97-1.28-9.09-.48-2.05-3.45-10.9-4.05-12.08Zm-9.74-18.98c-.25-.18-.46-.24-.46-.14s1.13,1.35,2.51,2.78c1.38,1.43,3.16,3.39,3.95,4.37,1.23,1.51,4.83,6.76,7.23,10.56.52.82,1.71,1.86,4.66,4.07,6.51,4.86,10.77,8.39,19.27,15.94,1.6,1.42,2.96,2.55,3,2.5.11-.11-2.68-5.23-4.02-7.37-1.86-2.99-7.96-10.94-10.54-13.75-2.28-2.48-11.29-9.3-20.3-15.36-2.67-1.8-5.06-3.41-5.32-3.58Zm-1.75,32.7c-9.01-6.59-12.24-8.89-12.49-8.89-.16,0-.25.62-.25,1.65,0,4.04-.73,8.18-2.7,15.39-.72,2.62-1.25,4.9-1.19,5.06.06.16,1.78,1.59,3.81,3.18,6.6,5.15,16.55,13.41,23.7,19.66.99.87,1.9,1.58,2.02,1.58s.33-.45.46-.99.62-2.41,1.08-4.15c1.3-4.88,2.06-10.21,2.38-16.71l.14-2.81-1.94-1.52c-5.85-4.59-10.87-8.41-15.03-11.45Zm46.48,18.58l-1.75-5.38-1.37-1.29c-6.35-5.94-11.41-10.25-20.41-17.36-4.12-3.25-4.6-3.61-4.6-3.34,0,.06.46,1.3,1.02,2.75,2.1,5.41,2.83,8.39,3.89,15.73.28,1.93.57,3.57.66,3.65.09.08,2.37,2.04,5.07,4.35,6.05,5.19,7.84,6.84,15.37,14.15,3.28,3.18,6.01,5.79,6.07,5.79.13,0-.6-6.34-.97-8.42-.47-2.61-1.16-5.08-2.96-10.64Zm-6.21-17.96c1.28,1.9,5.8,9.5,6.68,11.22.48.93,1.55,2.18,5.31,6.15,4.03,4.27,6.21,6.91,11.1,13.48,2.28,3.07,4.3,5.73,4.49,5.92.19.19-.1-.54-.65-1.64-.89-1.79-1.81-3.43-5.53-9.82-2.33-4.02-8.7-12.73-14.33-19.63-1.92-2.35-5.38-6.1-8.86-9.58-3.14-3.15-5.23-5.15-4.65-4.44,3.38,4.13,5.21,6.51,6.45,8.34Zm-33.84,53.84c1.6-3.63,4.44-10.24,4.44-10.35,0-.22-11.86-10.45-16.71-14.42-1.8-1.47-3.33-2.74-3.39-2.81-.06-.07-1.22-1.01-2.57-2.1-1.35-1.08-3.53-2.85-4.84-3.93l-2.39-1.96-.33.77c-1.86,4.34-4.19,9.15-5.82,11.99-2,3.48-6.8,11.47-7.1,11.82-.18.2-.32.43-.32.5s2.6,2.39,5.79,5.15c3.18,2.76,6.47,5.64,7.3,6.4,4.06,3.69,7.56,6.91,11.96,11.02,2.65,2.48,4.92,4.5,5.04,4.5.5,0,6.71-11.51,8.96-16.6Zm22.79-30.96c-2.31-2.04-4.42-3.91-4.69-4.14l-.48-.43-.27,4.5c-.3,5.09-.9,8.67-2.65,15.84l-1.17,4.79,1.6,1.52c8.3,7.9,13.12,12.69,18.65,18.57,3.58,3.8,6.58,6.91,6.67,6.91.19,0,1.59-5.73,2.28-9.35.58-3.06.89-5.95,1.31-12.51l.33-5.14-3.08-3.11c-7.1-7.18-10.2-10.1-18.52-17.44Zm22.87-2.82l-1.73-1.87,1.08,3.04c1.6,4.51,1.67,4.72,2.3,7.16.59,2.27,1.73,8.73,2.26,12.83l.29,2.22,2.01,2.31c7.01,8.05,11.14,13.47,18.34,24.08.59.87.62.88.62.3,0-1.29-.96-7.96-1.53-10.69-.88-4.16-4.16-14.77-5.07-16.35-.77-1.36-4.81-6.95-7.12-9.87-2.08-2.62-7.81-9.21-11.46-13.16Zm28.56,52.48c.61,3.92.92,5.31,1.36,6.1,5,9.05,6.4,12.2,10.24,23,1.04,2.91,1.83,4.85,1.84,4.47.03-1.84-2.36-14.15-3.53-18.26-1.47-5.14-4.63-14.51-6.62-19.64-1.59-4.1-4.46-10.09-7.84-16.36-1.04-1.94-1.17-2.15-1.17-1.95,0,.07.53,1.63,1.19,3.49,2.39,6.77,3.05,9.58,4.54,19.14Zm-118.75-21.1c-4.07,5.78-9.06,12.14-15.96,20.37-3.93,4.68-4.72,5.74-4.46,5.98,3.92,3.54,9.54,8.8,13,12.16,1.58,1.54,2.98,2.86,3.09,2.93.12.07,3.32,3.21,7.12,6.96,3.8,3.76,6.95,6.83,7.01,6.83.14,0,6.64-8.19,9.17-11.57,3.69-4.92,12.24-17.21,12.24-17.6,0-.12-.5-.67-1.11-1.22-.61-.55-2.16-2.02-3.45-3.26-4.05-3.91-11.05-10.27-20.69-18.8-.45-.4-1.68-1.49-2.72-2.42-1.04-.93-1.99-1.69-2.1-1.69-.11,0-.62.6-1.14,1.33Zm54.12,3.15c-1.85,4.72-4.85,10.87-8.97,18.41l-2.49,4.54,5.33,5.39c5.65,5.71,8.84,9.12,13.72,14.63,1.65,1.86,3.69,4.16,4.53,5.1s1.95,2.23,2.46,2.86c.52.63,1.01,1.15,1.1,1.15.22,0,3.51-6.24,5.8-10.99,2.05-4.27,7.28-17.25,7.28-18.08,0-.65-7.71-8.85-17.01-18.09-5.21-5.18-9.59-9.41-9.73-9.4-.14,0-1.05,2.02-2.01,4.48Zm53.23,44.91c3.92,5.9,4.86,7.18,5.01,6.81.27-.65,1.75-7.76,2.16-10.39.46-2.94.79-6.94,1.08-13.26l.24-5.2-2.38-3.57c-3.16-4.74-4.08-6.03-6.96-9.76-2.56-3.31-11.43-14.03-11.61-14.03-.06,0-.11.18-.11.41,0,.22-.05,1.09-.11,1.93-.06.84-.16,2.83-.23,4.44-.17,3.92-.58,6.64-2.13,14.26-.76,3.75-1.22,6.54-1.11,6.7.11.15,1.52,1.89,3.14,3.86,4.66,5.68,7.82,10,13,17.8Zm-18.38-15.06l-.36.86c-.2.47-.36.94-.36,1.04,0,.32-3.19,8.65-4.21,10.98-.53,1.22-2.6,5.49-4.6,9.5l-3.64,7.28,3.96,5.23c5.72,7.56,7.56,10.27,14.48,21.32,2.48,3.96,2.79,4.36,3.07,3.98.17-.23,1.56-2.95,3.08-6.04,3.04-6.16,4.49-9.64,7.73-18.54l2.15-5.91-1.01-1.68c-1.62-2.69-7.4-11.29-9.3-13.84-1.88-2.52-6.25-8.18-9.17-11.87l-1.81-2.29Zm40.52,60.55c.21-.21,2-9.67,2.34-12.36.41-3.25.81-10.66.85-15.73l.02-3.32-1.65-4.82c-.91-2.65-2.13-5.97-2.72-7.36-1.06-2.5-7.92-16.39-8.27-16.76-.1-.1-.24,2.42-.32,5.61-.15,6.44-.31,7.79-2.07,17.28l-1.21,6.57,3.3,6.64c3.31,6.66,4.62,9.85,7.88,19.3,1.88,5.44,1.74,5.07,1.85,4.96Zm-165.1-11.62l11.61,11.67,5.6-6.03c7.28-7.84,13.59-14.92,20.73-23.27l1.39-1.62-7.23-7.17c-3.98-3.94-9.02-8.85-11.2-10.9-2.18-2.05-4.92-4.63-6.08-5.72-5.02-4.74-5.98-5.61-6.21-5.61-.07,0-.38.29-.68.64-2.47,2.88-11.07,12.01-17.32,18.41-2.39,2.44-4.8,4.92-5.35,5.5-.55.58-1.84,1.91-2.86,2.96l-1.86,1.91,3.94,3.8c2.16,2.09,9.16,9.04,15.54,15.46Zm52.98-19.7c-.32.51-.36.46,4.37,5.51,5.19,5.55,6.46,6.96,11.91,13.32,4.86,5.67,9.61,11.3,10.34,12.26.33.43-.09.92,4.98-5.91,2.06-2.78,5.04-6.97,6.64-9.32,3.03-4.47,9.69-14.74,9.88-15.24.27-.69-12.54-14.97-23.16-25.81-1.8-1.84-3.31-3.44-3.35-3.56-.23-.65-.97.26-4.3,5.21-3.6,5.37-8.61,12.22-14.16,19.4-1.57,2.03-2.98,3.89-3.13,4.13Zm-48.81,39.08c0-.27-17.44-17.75-24.9-24.96-3.34-3.23-6.14-5.94-6.22-6.02-.08-.08-.87.56-1.75,1.41s-3.66,3.57-6.17,6.02c-4.69,4.59-15.99,15.52-17.1,16.53-.34.31-2.12,2.03-3.96,3.81l-3.34,3.24,2.67,2.58c9.58,9.23,15.69,15.14,19.97,19.32,2.7,2.64,5.93,5.79,7.18,7l2.27,2.21,3.46-3.24c4.24-3.97,27.89-27.64,27.89-27.91Zm44.56-28.83c-1.14-1.25-2.15-2.28-2.24-2.28s-.41.33-.71.74c-1.85,2.5-15.14,17.62-21.03,23.93-.84.9-2.52,2.72-3.73,4.05l-2.19,2.41.8.86c7.04,7.59,15.96,17.61,19.72,22.13.64.77,1.22,1.46,1.3,1.52.07.06,1.37,1.57,2.89,3.34,1.52,1.77,2.84,3.19,2.95,3.16.2-.07,6.72-7,10.42-11.06,2.74-3.01,8.4-9.62,12.83-14.95,1.92-2.31,3.63-4.38,3.82-4.6.3-.35.11-.66-1.72-2.92-6.64-8.2-11.66-13.97-19.39-22.28-.9-.97-2.57-2.79-3.71-4.04Zm58.24,59.78c.35,0,6.6-8.19,10.26-13.44,1.03-1.48,3.71-5.58,5.95-9.12,5.07-7.99,5.11-8.06,5.11-8.41,0-.96-8.85-14.66-13.91-21.54-1.64-2.23-3.89-5.29-5-6.8-1.11-1.51-2.09-2.75-2.17-2.75-.08,0-.97,1.33-1.97,2.97-4.1,6.74-9.5,14.62-16.89,24.69-1.31,1.78-2.38,3.34-2.38,3.47s1.72,2.56,3.82,5.41c2.1,2.85,5.19,7.23,6.85,9.74,3.3,4.96,3.24,4.87,7.3,11.34,1.53,2.44,2.89,4.44,3.01,4.44Zm53.94-24.84l2.18-6.13-1.53-4.74c-2.38-7.36-4.23-11.75-9.29-22.03-2.16-4.38-2.19-4.43-2.47-3.74-.16.39-.58,1.6-.94,2.69-2.19,6.59-4.14,11.43-7.23,17.88-.86,1.8-2.29,4.77-3.16,6.6l-1.6,3.33,2.3,4.73c3.9,8.04,5.55,12.1,9.11,22.44.74,2.15,1.43,3.92,1.52,3.92.32,0,6.49-12.53,7.71-15.66.68-1.74,2.21-5.92,3.41-9.29Zm12.01-18.87c-.11-1.8-.38-4.48-.58-5.96-.57-4.14-1.93-12.19-2.08-12.34-.07-.07-.13,2.22-.14,5.11,0,6.99-.42,10.76-2.34,21.26-.38,2.11-.7,4.2-.7,4.66,0,.45.31,2.35.68,4.22,1.37,6.81,1.86,11.82,1.92,19.4.02,2.38.1,5.06.18,5.96l.15,1.64.52-2.72c.58-3.01,2.05-13.02,2.26-15.4.24-2.75.33-22.49.12-25.82Zm-73.31,52.9l1.35-1.56-2.28-3.7c-4.05-6.58-8.59-13.23-14.82-21.71-3.03-4.13-4.04-5.48-4.06-5.48-.01,0-1.6,1.91-3.53,4.25-5.68,6.88-8.75,10.34-17.88,20.15-2.51,2.69-4.89,5.27-5.29,5.73l-.73.84.87,1.05c4.54,5.5,10.68,13.97,17.08,23.54,1.74,2.6,3.22,4.73,3.29,4.73.24.02,10.71-10.71,14.36-14.72,3.17-3.47,7.98-8.91,11.64-13.13Zm24.43,27.85c.09,0,.56-.51,1.05-1.11,3.76-4.62,6.51-8.12,8.58-10.92,3.33-4.49,11.68-16.96,11.68-17.44,0-.57-2.58-8.29-3.82-11.43-1.58-4-3.94-9.18-7.76-17.04l-1.18-2.43-2.42,3.95c-4.54,7.4-7.59,11.8-14.79,21.31-2.17,2.86-3.99,5.34-4.06,5.52-.07.17,1.18,2.9,2.78,6.05,3.49,6.92,4.81,10.07,9.42,22.56.2.55.44.99.52.98Zm42.7-50.23c-.95-5.91-1.64-9.8-1.76-9.92-.06-.06-.36.69-.66,1.68-2.09,6.92-4.62,12.97-9.46,22.66l-3.18,6.36.93,4.62c1.46,7.28,1.77,10.24,2,18.88.08,2.96.19,5.53.25,5.72.24.74,5.9-10.13,7.98-15.31.77-1.93,2.26-5.85,3.3-8.71l1.89-5.21v-5.43c0-5.73-.29-9.09-1.29-15.35Zm-173.42,8.22c-4,3.88-8.57,8.32-10.16,9.85l-2.88,2.8,4.3,4.34c6.52,6.58,9.77,9.98,17,17.79,3.63,3.92,6.7,7.16,6.81,7.21.36.14,10.53-9.45,23.07-21.76,5.71-5.6,7.52-7.52,7.42-7.83-.08-.23-.48-.79-.89-1.25-.42-.46-1.23-1.4-1.81-2.09-1.79-2.13-9.38-10.76-11.1-12.62-.9-.97-2.64-2.87-3.88-4.21-6.67-7.28-9.39-10.16-9.64-10.21-.15-.03-2.68,2.42-5.62,5.44-2.94,3.02-8.62,8.66-12.62,12.54Zm37.48,69.28c2.51,3.36,4.78,6.38,5.03,6.72l.47.61,2.81-2.48c11.31-9.99,12.22-10.81,22.54-20.41,2.56-2.38,4.66-4.49,4.67-4.69.02-.39-3.54-5.76-7.34-11.09-2.05-2.86-4.05-5.51-11.81-15.59-.96-1.25-1.85-2.27-1.98-2.28-.13,0-2.65,2.38-5.61,5.31-6.66,6.6-9.44,9.24-18.07,17.22-3.75,3.47-6.82,6.38-6.82,6.46s1.52,1.96,3.38,4.16c5.11,6.05,7.73,9.35,12.74,16.06Zm80.02-12.53c2.97-3.15,5.46-5.78,5.53-5.85.07-.07.48-.5.91-.97l.78-.85-1.58-4.41c-.87-2.42-2.09-5.62-2.73-7.1-1.52-3.54-8.4-17.53-8.62-17.53-.1,0-1.58,1.6-3.29,3.56-5.68,6.5-10.05,11.18-17.1,18.35l-6.98,7.09.51.87c4.09,6.92,6.96,12.89,11.21,23.37.69,1.7,1.34,3.1,1.44,3.1.52,0,12.84-12.15,19.9-19.64Zm17.68,5.38c.24,2.05.69,9.58.75,12.56.02.93.12,1.69.22,1.69.18,0,4.3-4.67,7.72-8.77,2.29-2.74,5.6-7.2,10-13.47l3.54-5.05v-3.62c0-4.08-.31-8.57-.83-11.87-.66-4.25-2.26-12.98-2.44-13.3-.12-.23-.55.26-1.43,1.64-4.93,7.76-7.72,11.58-15.97,21.88l-4.16,5.19.82,3.57c.97,4.23,1.45,6.82,1.77,9.54Zm37.11-37.35c-1.96,5.82-3.85,10.08-8.06,18.14l-3.25,6.23-.29,2.57c-.71,6.26-1.83,10.91-4.56,19.05-.97,2.89-1.74,5.34-1.7,5.45.2.59,7.04-12.87,8.83-17.37,3.81-9.56,7.38-20.41,8.61-26.19.71-3.35,2.17-11.9,2.09-12.29-.04-.18-.79,1.8-1.67,4.4Zm-94.8,31.23c-.08-.08-1.72,1.34-3.65,3.16-4.83,4.55-12.08,11.06-18.47,16.6-2.95,2.56-5.97,5.17-6.71,5.81-.74.64-1.34,1.25-1.34,1.35s.87,1.59,1.94,3.3c3.95,6.35,7.08,12.35,10.93,20.96l.35.78,4.2-3.35c7.03-5.61,12.68-10.31,19.74-16.44,2.22-1.93,4.44-3.82,4.93-4.21.49-.39.94-.81.99-.94.17-.41-2.82-7.77-4.84-11.93-1.07-2.19-2.97-5.88-4.24-8.18-1.26-2.31-2.61-4.77-2.99-5.48-.38-.71-.76-1.35-.84-1.44Zm52.69,23.07c-.22-6.34-.67-9.78-2.2-17.08-.38-1.8-.81-3.88-.96-4.62-.15-.74-.35-1.34-.45-1.34s-.58.45-1.07.99c-4.16,4.65-11.29,11.91-17.42,17.71-2.38,2.25-5.27,5-6.42,6.12l-2.1,2.03.98,3.93c1.55,6.19,1.96,8.83,2.3,14.92.09,1.54.19,2.96.23,3.16.04.19.07.9.08,1.58.01.7.12,1.23.27,1.23.25,0,4.55-3.67,10.27-8.76,1.74-1.55,6.18-5.8,9.89-9.46l6.73-6.65-.13-3.75Zm26.76-22.9c0-.4-.43,0-1.05.98-3.67,5.8-8.47,12.04-16.15,20.97l-4.02,4.68-.39,3.15c-.68,5.43-1.46,8.71-3.67,15.38-1.16,3.51-2.08,6.41-2.03,6.45.06.05,5.23-5.35,7.1-7.43,1.83-2.03,5.81-7.03,9.28-11.67l4.33-5.79,1.45-4.03c1.57-4.37,2.53-7.79,3.26-11.62.45-2.39,1.89-10.8,1.89-11.08Zm-60.65,54.21c-.2-4.32-.48-6.73-1.17-10.21-.82-4.14-2.48-10.95-2.66-10.94-.08,0-1.21.92-2.5,2.05-6.79,5.91-18.45,15.44-25.41,20.75-1,.76-1.81,1.47-1.81,1.57s.46,1.79,1.03,3.75c1.57,5.42,2.17,9.07,2.62,15.78.09,1.32.26,2.4.38,2.4.26,0,.14.08,6.26-4.26,5.15-3.65,10.83-7.89,18.57-13.86l4.85-3.74-.15-3.27Zm6.53,21.07c5.4-4.14,9.37-7.48,18.18-15.31l2.73-2.43.97-2.48c1.3-3.31,2.23-6.19,2.91-9.03.6-2.5,2.29-12.41,2.17-12.73-.04-.11-1.91,1.6-4.16,3.78-5.69,5.53-12.36,11.54-19.45,17.54-1.49,1.26-2.81,2.41-2.94,2.57s-.46,1.92-.73,3.91c-.74,5.5-1.22,7.15-5.35,18.23-.15.4.09.23,5.69-4.06Zm42.88-40.07c-4,5.7-8.68,11.28-15.63,18.65-2.92,3.09-3.36,3.68-5.02,6.66-2.05,3.68-3.79,6.42-5.72,9-1.37,1.84-5.62,7.17-6.96,8.75-1.76,2.07-.58,1.22,2.4-1.74,7.93-7.86,12.81-13.47,19.52-22.44,4.16-5.56,5.53-7.54,7.5-10.87,2.28-3.85,5.62-9.96,5.52-10.07-.05-.05-.77.87-1.6,2.05Zm-53.54,44.83c1.46-3.63,2.12-6.16,3.05-11.69.4-2.38.78-4.56.85-4.85.06-.29.04-.52-.06-.51-.1.01-.97.65-1.93,1.41-5.18,4.11-12.9,9.73-23.2,16.89-4.17,2.9-4.62,3.27-4.62,3.87,0,1.21-.93,6.17-1.52,8.08-.32,1.03-1.35,3.66-2.3,5.84-.95,2.19-1.69,4.01-1.65,4.06.24.28,16.31-9.73,24.64-15.35,5.34-3.61,4.86-3.06,6.75-7.76Zm26.91-15.38c-4.4,4.13-10.27,8.94-18.47,15.12l-5.96,4.5-1.87,2.96c-2.96,4.69-4.87,7.06-10.37,12.88-1.59,1.68-2.81,3.06-2.71,3.06.23,0,5.8-3.55,9.46-6.04,5.1-3.46,15.95-11.81,17.42-13.4,4.8-5.21,7.72-9.22,12.3-16.91,2.56-4.3,2.57-4.4.2-2.18Zm-19.52,25.69c-4.5,3.75-14.11,10.4-22.1,15.28-1.05.64-3.24,2.22-4.86,3.5-5.11,4.04-8.81,6.46-18.21,11.91-4.65,2.69-.6.76,7.42-3.55,11.38-6.11,25.12-15.46,33.05-22.49,4.89-4.33,6.55-5.9,6.18-5.84-.04,0-.71.54-1.48,1.18Zm-35.3,21.72c9.15-4.94,8.52-4.51,12.4-8.46,1.93-1.97,4.26-4.58,5.17-5.8,1.94-2.61,5.69-8.07,5.69-8.27,0-.29-.41-.06-2.92,1.64-3.86,2.62-11.52,7.37-17.3,10.73-2.83,1.65-6.06,3.53-7.17,4.18-1.87,1.09-2.18,1.39-3.95,3.74-2.37,3.15-4.92,5.71-9.39,9.44-1.9,1.58-3.45,2.92-3.45,2.97,0,.42,13.16-5.97,20.92-10.16Zm-1.63,3.26c-7.09,5.05-13.68,8.81-19.87,11.35-1.8.74-3.37,1.48-3.51,1.65-.38.49-11.63,4.9-17.3,6.78-8.21,2.72-16.83,5.06-23.96,6.5-4.97,1-15.2,2.75-15.62,2.66-.22-.05.45-.22,1.47-.38,5.4-.87,13.76-2.5,17.06-3.32,4.79-1.2,15.16-4.2,15.31-4.43.06-.1,1.75-.83,3.74-1.62,7.57-3.02,11.13-4.7,15.9-7.52,1.61-.95,5.76-2.99,9.23-4.53,6.31-2.8,16.84-7.93,20.8-10.13,1.16-.64,2.2-1.18,2.31-1.18.29-.02-.33.44-5.58,4.19Zm-25.95,13.81c-.13,0-.39.1-.58.23-.19.12-.25.23-.12.23s.39-.1.58-.23c.19-.12.25-.23.12-.23Zm1.17-.47c-.13,0-.39.1-.58.23s-.25.23-.12.23.39-.1.58-.23.25-.23.12-.23Zm1.17-.47c-.13,0-.39.1-.58.23s-.25.23-.12.23.39-.1.58-.23.25-.23.12-.23Z"></path>
    </g>
    <ellipse class="cls-5" cx="304.17" cy="543.26" rx="153.82" ry="9.24"></ellipse>
  </g>
  <g>
    <path class="cls-2" d="m168.52,578.25v17.74h8.22c1.89,0,3.27-.41,4.14-1.25.88-.83,1.46-2.48,1.75-4.94h1.23v15.28h-1.23c-.02-1.75-.25-3.04-.68-3.86s-1.03-1.44-1.8-1.85-1.9-.62-3.41-.62h-8.22v14.18c0,2.29.14,3.79.43,4.53.22.55.69,1.03,1.4,1.43.98.53,2,.8,3.06.8h1.63v1.23h-19.37v-1.23h1.6c1.86,0,3.22-.54,4.06-1.63.53-.71.8-2.42.8-5.13v-29.15c0-2.29-.14-3.79-.43-4.53-.22-.55-.68-1.03-1.36-1.43-.95-.53-1.97-.8-3.06-.8h-1.6v-1.23h33.58l.43,9.92h-1.16c-.58-2.11-1.25-3.65-2.01-4.64s-1.71-1.7-2.83-2.15-2.86-.67-5.21-.67h-9.95Z"></path>
    <path class="cls-2" d="m191.58,575.42h12.25l27.59,33.85v-26.03c0-2.77-.31-4.5-.93-5.19-.82-.93-2.12-1.4-3.89-1.4h-1.56v-1.23h15.71v1.23h-1.6c-1.91,0-3.26.58-4.06,1.73-.49.71-.73,2.33-.73,4.86v38.04h-1.2l-29.75-36.34v27.79c0,2.77.3,4.5.9,5.19.84.93,2.14,1.4,3.89,1.4h1.6v1.23h-15.71v-1.23h1.56c1.93,0,3.29-.58,4.09-1.73.49-.71.73-2.33.73-4.86v-31.38c-1.31-1.53-2.3-2.54-2.98-3.03s-1.67-.94-2.98-1.36c-.64-.2-1.62-.3-2.93-.3v-1.23Z"></path>
    <path class="cls-2" d="m242.87,620.92v-1.23h1.7c1.91,0,3.26-.61,4.06-1.83.49-.73.73-2.37.73-4.93v-29.15c0-2.82-.31-4.58-.93-5.29-.87-.98-2.15-1.46-3.86-1.46h-1.7v-1.23h18.37c6.75,0,11.88.77,15.39,2.3s6.35,4.08,8.49,7.65,3.21,7.7,3.21,12.38c0,6.28-1.91,11.53-5.72,15.74-4.28,4.7-10.81,7.06-19.57,7.06h-20.17Zm12.88-3.26c2.82.62,5.18.93,7.09.93,5.15,0,9.42-1.81,12.81-5.42s5.09-8.52,5.09-14.71-1.7-11.15-5.09-14.74-7.75-5.39-13.08-5.39c-2,0-4.27.32-6.82.97v38.37Z"></path>
    <path class="cls-2" d="m293.69,595.84h17.21v5.03h-17.21v-5.03Z"></path>
    <path class="cls-2" d="m354.66,574.75l1.03,15.34h-1.03c-1.38-4.59-3.34-7.9-5.89-9.92s-5.61-3.03-9.19-3.03c-3,0-5.7.76-8.12,2.28-2.42,1.52-4.32,3.95-5.71,7.27s-2.08,7.47-2.08,12.41c0,4.08.65,7.62,1.96,10.62s3.28,5.29,5.91,6.89,5.63,2.4,9,2.4c2.93,0,5.51-.63,7.75-1.88s4.7-3.75,7.39-7.47l1.03.67c-2.26,4.02-4.9,6.96-7.92,8.82s-6.6,2.8-10.75,2.8c-7.48,0-13.27-2.77-17.37-8.32-3.06-4.13-4.59-8.99-4.59-14.58,0-4.5,1.01-8.64,3.03-12.41s4.8-6.69,8.34-8.77,7.41-3.11,11.6-3.11c3.26,0,6.48.8,9.65,2.4.93.49,1.6.73,2,.73.6,0,1.12-.21,1.56-.63.58-.6.99-1.43,1.23-2.5h1.16Z"></path>
    <path class="cls-2" d="m384.02,574.75c5.86,0,10.93,2.23,15.23,6.67,4.29,4.45,6.44,10,6.44,16.66s-2.16,12.55-6.49,17.07-9.56,6.79-15.71,6.79-11.43-2.21-15.66-6.62c-4.23-4.42-6.34-10.13-6.34-17.14s2.44-13.01,7.32-17.54c4.24-3.93,9.31-5.89,15.21-5.89Zm-.63,2.43c-4.04,0-7.28,1.5-9.72,4.49-3.04,3.73-4.56,9.19-4.56,16.37s1.58,13.04,4.73,17.01c2.42,3.02,5.61,4.53,9.59,4.53,4.24,0,7.74-1.65,10.5-4.96s4.14-8.52,4.14-15.64c0-7.72-1.52-13.48-4.56-17.27-2.44-3.02-5.81-4.53-10.12-4.53Z"></path>
    <path class="cls-2" d="m436.21,620.92l-17.44-37.97v30.15c0,2.77.3,4.5.9,5.19.82.93,2.12,1.4,3.89,1.4h1.6v1.23h-15.71v-1.23h1.6c1.91,0,3.26-.58,4.06-1.73.49-.71.73-2.33.73-4.86v-29.49c0-2-.22-3.44-.67-4.33-.31-.64-.88-1.18-1.71-1.61-.83-.43-2.17-.65-4.01-.65v-1.23h12.78l16.37,35.31,16.11-35.31h12.78v1.23h-1.56c-1.93,0-3.29.58-4.09,1.73-.49.71-.73,2.33-.73,4.86v29.49c0,2.77.31,4.5.93,5.19.82.93,2.12,1.4,3.89,1.4h1.56v1.23h-19.17v-1.23h1.6c1.93,0,3.28-.58,4.06-1.73.49-.71.73-2.33.73-4.86v-30.15l-17.41,37.97h-1.1Z"></path>
  </g>
</svg><style>@media (prefers-color-scheme: light) { :root { filter: none; } }
@media (prefers-color-scheme: dark) { :root { filter: none; } }
</style></svg>